<svg version="1.1" viewBox="0.0 0.0 960.0 540.0" fill="none" stroke="none" stroke-linecap="square" stroke-miterlimit="10" xmlns:xlink="http://www.w3.org/1999/xlink" xmlns="http://www.w3.org/2000/svg"><clipPath id="p.0"><path d="m0 0l960.0 0l0 540.0l-960.0 0l0 -540.0z" clip-rule="nonzero"/></clipPath><g clip-path="url(#p.0)"><path fill="#ffffff" d="m0 0l960.0 0l0 540.0l-960.0 0z" fill-rule="evenodd"/><path fill="#ffffff" d="m212.93701 167.75133l0 0c0 -19.44487 15.763184 -35.208054 35.208054 -35.208054l480.95398 0c9.3377075 0 18.29303 3.7094116 24.895813 10.312195c6.602783 6.6027985 10.312195 15.558105 10.312195 24.895859l0 140.82799c0 19.444855 -15.763184 35.20804 -35.208008 35.20804l-480.95398 0l0 0c-19.44487 0 -35.208054 -15.763184 -35.208054 -35.20804z" fill-rule="evenodd"/><path stroke="#595959" stroke-width="1.4409448818897637" stroke-linejoin="round" stroke-linecap="butt" d="m212.93701 167.75133l0 0c0 -19.44487 15.763184 -35.208054 35.208054 -35.208054l480.95398 0c9.3377075 0 18.29303 3.7094116 24.895813 10.312195c6.602783 6.6027985 10.312195 15.558105 10.312195 24.895859l0 140.82799c0 19.444855 -15.763184 35.20804 -35.208008 35.20804l-480.95398 0l0 0c-19.44487 0 -35.208054 -15.763184 -35.208054 -35.20804z" fill-rule="evenodd"/><path fill="#eeeeee" d="m367.27097 206.67863l0 0c0 -6.6333466 5.3773804 -12.010742 12.010742 -12.010742l103.66354 0c3.1854553 0 6.2404175 1.2654114 8.492889 3.517868c2.2524414 2.2524567 3.5178528 5.307434 3.5178528 8.492874l0 48.04152c0 6.6333313 -5.3773804 12.010742 -12.010742 12.010742l-103.66354 0c-6.633362 0 -12.010742 -5.377411 -12.010742 -12.010742z" fill-rule="evenodd"/><path stroke="#595959" stroke-width="0.84251968503937" stroke-linejoin="round" stroke-linecap="butt" d="m367.27097 206.67863l0 0c0 -6.6333466 5.3773804 -12.010742 12.010742 -12.010742l103.66354 0c3.1854553 0 6.2404175 1.2654114 8.492889 3.517868c2.2524414 2.2524567 3.5178528 5.307434 3.5178528 8.492874l0 48.04152c0 6.6333313 -5.3773804 12.010742 -12.010742 12.010742l-103.66354 0c-6.633362 0 -12.010742 -5.377411 -12.010742 -12.010742z" fill-rule="evenodd"/><path fill="#000000" d="m398.2348 226.83783l0 -11.28125l7.609375 0l0 1.328125l-6.125 0l0 3.5l5.296875 0l0 1.328125l-5.296875 0l0 5.125l-1.484375 0zm9.364655 0l0 -8.171875l1.234375 0l0 1.234375q0.484375 -0.875 0.890625 -1.140625q0.40625 -0.28125 0.890625 -0.28125q0.6875 0 1.421875 0.453125l-0.484375 1.28125q-0.5 -0.296875 -1.015625 -0.296875q-0.453125 0 -0.8125 0.28125q-0.359375 0.265625 -0.515625 0.75q-0.234375 0.734375 -0.234375 1.609375l0 4.28125l-1.375 0zm4.750061 -4.09375q0 -2.265625 1.25 -3.359375q1.0625 -0.90625 2.578125 -0.90625q1.6875 0 2.75 1.109375q1.078125 1.09375 1.078125 3.046875q0 1.578125 -0.484375 2.484375q-0.46875 0.90625 -1.375 1.40625q-0.90625 0.5 -1.96875 0.5q-1.71875 0 -2.78125 -1.09375q-1.046875 -1.109375 -1.046875 -3.1875zm1.421875 0q0 1.578125 0.671875 2.359375q0.6875 0.78125 1.734375 0.78125q1.03125 0 1.71875 -0.78125q0.6875 -0.796875 0.6875 -2.40625q0 -1.515625 -0.703125 -2.296875q-0.6875 -0.78125 -1.703125 -0.78125q-1.046875 0 -1.734375 0.78125q-0.671875 0.78125 -0.671875 2.34375zm7.861847 4.09375l0 -8.171875l1.234375 0l0 1.15625q0.90625 -1.34375 2.609375 -1.34375q0.734375 0 1.34375 0.265625q0.625 0.265625 0.9375 0.703125q0.3125 0.421875 0.4375 1.015625q0.078125 0.390625 0.078125 1.34375l0 5.03125l-1.390625 0l0 -4.96875q0 -0.84375 -0.171875 -1.265625q-0.15625 -0.421875 -0.5625 -0.671875q-0.40625 -0.25 -0.96875 -0.25q-0.890625 0 -1.53125 0.5625q-0.640625 0.5625 -0.640625 2.125l0 4.46875l-1.375 0zm11.783722 -1.234375l0.203125 1.21875q-0.59375 0.125 -1.046875 0.125q-0.75 0 -1.171875 -0.234375q-0.421875 -0.25 -0.59375 -0.625q-0.15625 -0.390625 -0.15625 -1.640625l0 -4.703125l-1.015625 0l0 -1.078125l1.015625 0l0 -2.03125l1.375 -0.828125l0 2.859375l1.390625 0l0 1.078125l-1.390625 0l0 4.78125q0 0.59375 0.0625 0.765625q0.078125 0.15625 0.25 0.265625q0.171875 0.09375 0.46875 0.09375q0.234375 0 0.609375 -0.046875zm0.8177185 -2.15625l0 -1.390625l4.25 0l0 1.390625l-4.25 0zm11.390686 0.765625l1.421875 0.171875q-0.328125 1.25 -1.25 1.953125q-0.921875 0.6875 -2.34375 0.6875q-1.796875 0 -2.84375 -1.109375q-1.046875 -1.109375 -1.046875 -3.09375q0 -2.0625 1.0625 -3.203125q1.0625 -1.140625 2.75 -1.140625q1.640625 0 2.671875 1.125q1.046875 1.109375 1.046875 3.125q0 0.125 0 0.375l-6.09375 0q0.078125 1.34375 0.75 2.0625q0.6875 0.71875 1.71875 0.71875q0.765625 0 1.296875 -0.390625q0.53125 -0.40625 0.859375 -1.28125zm-4.546875 -2.25l4.5625 0q-0.09375 -1.03125 -0.53125 -1.546875q-0.65625 -0.796875 -1.71875 -0.796875q-0.953125 0 -1.609375 0.640625q-0.640625 0.640625 -0.703125 1.703125zm7.721222 4.875l0 -8.171875l1.234375 0l0 1.15625q0.90625 -1.34375 2.609375 -1.34375q0.734375 0 1.34375 0.265625q0.625 0.265625 0.9375 0.703125q0.3125 0.421875 0.4375 1.015625q0.078125 0.390625 0.078125 1.34375l0 5.03125l-1.390625 0l0 -4.96875q0 -0.84375 -0.171875 -1.265625q-0.15625 -0.421875 -0.5625 -0.671875q-0.40625 -0.25 -0.96875 -0.25q-0.890625 0 -1.53125 0.5625q-0.640625 0.5625 -0.640625 2.125l0 4.46875l-1.375 0zm14.064972 0l0 -1.03125q-0.78125 1.21875 -2.28125 1.21875q-0.984375 0 -1.8125 -0.53125q-0.8125 -0.546875 -1.265625 -1.515625q-0.453125 -0.96875 -0.453125 -2.21875q0 -1.21875 0.40625 -2.21875q0.421875 -1.0 1.234375 -1.53125q0.8125 -0.53125 1.828125 -0.53125q0.734375 0 1.3125 0.3125q0.578125 0.3125 0.9375 0.8125l0 -4.046875l1.375 0l0 11.28125l-1.28125 0zm-4.375 -4.078125q0 1.5625 0.65625 2.34375q0.65625 0.78125 1.5625 0.78125q0.90625 0 1.53125 -0.734375q0.640625 -0.75 0.640625 -2.28125q0 -1.671875 -0.640625 -2.453125q-0.640625 -0.796875 -1.59375 -0.796875q-0.921875 0 -1.546875 0.765625q-0.609375 0.75 -0.609375 2.375z" fill-rule="nonzero"/><path fill="#000000" d="m406.90915 245.83783l0 -11.28125l1.53125 0l5.921875 8.859375l0 -8.859375l1.4375 0l0 11.28125l-1.53125 0l-5.9375 -8.875l0 8.875l-1.421875 0zm16.822937 -2.625l1.421875 0.171875q-0.328125 1.25 -1.25 1.953125q-0.921875 0.6875 -2.34375 0.6875q-1.796875 0 -2.84375 -1.109375q-1.046875 -1.109375 -1.046875 -3.09375q0 -2.0625 1.0625 -3.203125q1.0625 -1.140625 2.75 -1.140625q1.640625 0 2.671875 1.125q1.046875 1.109375 1.046875 3.125q0 0.125 0 0.375l-6.09375 0q0.078125 1.34375 0.75 2.0625q0.6875 0.71875 1.71875 0.71875q0.765625 0 1.296875 -0.390625q0.53125 -0.40625 0.859375 -1.28125zm-4.546875 -2.25l4.5625 0q-0.09375 -1.03125 -0.53125 -1.546875q-0.65625 -0.796875 -1.71875 -0.796875q-0.953125 0 -1.609375 0.640625q-0.640625 0.640625 -0.703125 1.703125zm6.783722 4.875l3.0 -4.25l-2.765625 -3.921875l1.734375 0l1.25 1.90625q0.34375 0.546875 0.5625 0.921875q0.34375 -0.5 0.625 -0.90625l1.375 -1.921875l1.65625 0l-2.8125 3.84375l3.03125 4.328125l-1.703125 0l-1.671875 -2.546875l-0.453125 -0.671875l-2.140625 3.21875l-1.6875 0zm11.8359375 -1.234375l0.203125 1.21875q-0.59375 0.125 -1.046875 0.125q-0.75 0 -1.171875 -0.234375q-0.421875 -0.25 -0.59375 -0.625q-0.15625 -0.390625 -0.15625 -1.640625l0 -4.703125l-1.015625 0l0 -1.078125l1.015625 0l0 -2.03125l1.375 -0.828125l0 2.859375l1.390625 0l0 1.078125l-1.390625 0l0 4.78125q0 0.59375 0.0625 0.765625q0.078125 0.15625 0.25 0.265625q0.171875 0.09375 0.46875 0.09375q0.234375 0 0.609375 -0.046875zm0.770813 -1.96875l1.34375 -0.1875q0.0625 1.296875 0.484375 1.78125q0.4375 0.46875 1.203125 0.46875q0.5625 0 0.96875 -0.25q0.40625 -0.265625 0.5625 -0.703125q0.15625 -0.453125 0.15625 -1.421875l0 -7.765625l1.484375 0l0 7.6875q0 1.421875 -0.34375 2.203125q-0.34375 0.765625 -1.09375 1.171875q-0.734375 0.40625 -1.734375 0.40625q-1.484375 0 -2.28125 -0.84375q-0.78125 -0.859375 -0.75 -2.546875zm8.1328125 -0.421875l1.40625 -0.125q0.109375 0.84375 0.46875 1.390625q0.375 0.546875 1.140625 0.890625q0.765625 0.328125 1.734375 0.328125q0.859375 0 1.5 -0.25q0.65625 -0.265625 0.96875 -0.703125q0.328125 -0.453125 0.328125 -0.96875q0 -0.53125 -0.3125 -0.921875q-0.296875 -0.40625 -1.015625 -0.671875q-0.453125 -0.171875 -2.015625 -0.546875q-1.546875 -0.375 -2.171875 -0.703125q-0.796875 -0.421875 -1.203125 -1.046875q-0.390625 -0.640625 -0.390625 -1.421875q0 -0.84375 0.484375 -1.578125q0.484375 -0.75 1.40625 -1.140625q0.9375 -0.390625 2.078125 -0.390625q1.25 0 2.203125 0.40625q0.96875 0.40625 1.484375 1.203125q0.515625 0.78125 0.5625 1.765625l-1.4375 0.109375q-0.109375 -1.0625 -0.78125 -1.609375q-0.671875 -0.546875 -1.96875 -0.546875q-1.359375 0 -1.984375 0.5q-0.609375 0.484375 -0.609375 1.1875q0 0.609375 0.4375 1.0q0.4375 0.390625 2.25 0.8125q1.828125 0.40625 2.5 0.71875q0.984375 0.453125 1.453125 1.15625q0.46875 0.6875 0.46875 1.59375q0 0.90625 -0.515625 1.703125q-0.515625 0.796875 -1.484375 1.234375q-0.953125 0.4375 -2.171875 0.4375q-1.53125 0 -2.5625 -0.4375q-1.03125 -0.453125 -1.625 -1.34375q-0.59375 -0.90625 -0.625 -2.03125z" fill-rule="nonzero"/><path fill="#eeeeee" d="m574.23975 206.67863l0 0c0 -6.6333466 5.3774414 -12.010742 12.010742 -12.010742l118.37225 0c3.1854248 0 6.2404175 1.2654114 8.492859 3.517868c2.2524414 2.2524567 3.5178833 5.307434 3.5178833 8.492874l0 48.04152c0 6.6333313 -5.3773804 12.010742 -12.010742 12.010742l-118.37225 0c-6.633301 0 -12.010742 -5.377411 -12.010742 -12.010742z" fill-rule="evenodd"/><path stroke="#595959" stroke-width="0.84251968503937" stroke-linejoin="round" stroke-linecap="butt" d="m574.23975 206.67863l0 0c0 -6.6333466 5.3774414 -12.010742 12.010742 -12.010742l118.37225 0c3.1854248 0 6.2404175 1.2654114 8.492859 3.517868c2.2524414 2.2524567 3.5178833 5.307434 3.5178833 8.492874l0 48.04152c0 6.6333313 -5.3773804 12.010742 -12.010742 12.010742l-118.37225 0c-6.633301 0 -12.010742 -5.377411 -12.010742 -12.010742z" fill-rule="evenodd"/><path fill="#000000" d="m613.2911 226.83783l0 -11.28125l4.234375 0q1.296875 0 2.078125 0.34375q0.78125 0.34375 1.21875 1.0625q0.4375 0.703125 0.4375 1.46875q0 0.734375 -0.390625 1.375q-0.390625 0.640625 -1.1875 1.03125q1.03125 0.296875 1.578125 1.03125q0.546875 0.71875 0.546875 1.703125q0 0.78125 -0.34375 1.46875q-0.328125 0.6875 -0.828125 1.0625q-0.484375 0.359375 -1.234375 0.546875q-0.734375 0.1875 -1.8125 0.1875l-4.296875 0zm1.484375 -6.546875l2.453125 0q0.984375 0 1.421875 -0.125q0.5625 -0.171875 0.84375 -0.5625q0.296875 -0.390625 0.296875 -0.984375q0 -0.5625 -0.265625 -0.984375q-0.265625 -0.4375 -0.765625 -0.59375q-0.5 -0.15625 -1.71875 -0.15625l-2.265625 0l0 3.40625zm0 5.21875l2.8125 0q0.734375 0 1.015625 -0.0625q0.515625 -0.09375 0.859375 -0.296875q0.359375 -0.21875 0.578125 -0.625q0.21875 -0.421875 0.21875 -0.953125q0 -0.640625 -0.328125 -1.09375q-0.3125 -0.46875 -0.890625 -0.65625q-0.578125 -0.203125 -1.65625 -0.203125l-2.609375 0l0 3.890625zm14.249878 0.3125q-0.765625 0.65625 -1.484375 0.9375q-0.703125 0.265625 -1.53125 0.265625q-1.34375 0 -2.078125 -0.65625q-0.71875 -0.65625 -0.71875 -1.6875q0 -0.59375 0.265625 -1.09375q0.28125 -0.5 0.71875 -0.796875q0.453125 -0.296875 1.015625 -0.453125q0.40625 -0.109375 1.21875 -0.21875q1.6875 -0.1875 2.484375 -0.46875q0 -0.28125 0 -0.359375q0 -0.84375 -0.390625 -1.203125q-0.53125 -0.46875 -1.578125 -0.46875q-0.984375 0 -1.453125 0.34375q-0.453125 0.34375 -0.6875 1.21875l-1.34375 -0.1875q0.1875 -0.875 0.609375 -1.40625q0.421875 -0.53125 1.21875 -0.8125q0.796875 -0.296875 1.859375 -0.296875q1.046875 0 1.6875 0.25q0.65625 0.234375 0.96875 0.609375q0.3125 0.375 0.4375 0.953125q0.0625 0.34375 0.0625 1.28125l0 1.84375q0 1.921875 0.09375 2.4375q0.09375 0.515625 0.34375 0.984375l-1.4375 0q-0.21875 -0.4375 -0.28125 -1.015625zm-0.109375 -3.09375q-0.765625 0.3125 -2.265625 0.53125q-0.859375 0.125 -1.21875 0.28125q-0.34375 0.140625 -0.546875 0.4375q-0.1875 0.296875 -0.1875 0.671875q0 0.546875 0.421875 0.921875q0.421875 0.359375 1.21875 0.359375q0.8125 0 1.4375 -0.34375q0.625 -0.34375 0.90625 -0.953125q0.234375 -0.46875 0.234375 -1.390625l0 -0.515625zm8.877502 1.109375l1.359375 0.1875q-0.21875 1.40625 -1.140625 2.203125q-0.921875 0.796875 -2.265625 0.796875q-1.671875 0 -2.703125 -1.09375q-1.015625 -1.109375 -1.015625 -3.15625q0 -1.3125 0.4375 -2.296875q0.453125 -1.0 1.34375 -1.5q0.890625 -0.5 1.953125 -0.5q1.328125 0 2.171875 0.671875q0.84375 0.671875 1.09375 1.90625l-1.34375 0.21875q-0.203125 -0.828125 -0.6875 -1.234375q-0.484375 -0.421875 -1.1875 -0.421875q-1.046875 0 -1.703125 0.75q-0.640625 0.75 -0.640625 2.375q0 1.640625 0.625 2.390625q0.625 0.75 1.640625 0.75q0.828125 0 1.375 -0.5q0.546875 -0.5 0.6875 -1.546875zm2.5546875 3.0l0 -11.28125l1.390625 0l0 6.4375l3.28125 -3.328125l1.78125 0l-3.125 3.03125l3.453125 5.140625l-1.71875 0l-2.703125 -4.1875l-0.96875 0.953125l0 3.234375l-1.390625 0zm7.3359375 -3.390625l0 -1.390625l4.25 0l0 1.390625l-4.25 0zm11.390686 0.765625l1.421875 0.171875q-0.328125 1.25 -1.25 1.953125q-0.921875 0.6875 -2.34375 0.6875q-1.796875 0 -2.84375 -1.109375q-1.046875 -1.109375 -1.046875 -3.09375q0 -2.0625 1.0625 -3.203125q1.0625 -1.140625 2.75 -1.140625q1.640625 0 2.671875 1.125q1.046875 1.109375 1.046875 3.125q0 0.125 0 0.375l-6.09375 0q0.078125 1.34375 0.75 2.0625q0.6875 0.71875 1.71875 0.71875q0.765625 0 1.296875 -0.390625q0.53125 -0.40625 0.859375 -1.28125zm-4.546875 -2.25l4.5625 0q-0.09375 -1.03125 -0.53125 -1.546875q-0.65625 -0.796875 -1.71875 -0.796875q-0.953125 0 -1.609375 0.640625q-0.640625 0.640625 -0.703125 1.703125zm7.7212524 4.875l0 -8.171875l1.234375 0l0 1.15625q0.90625 -1.34375 2.609375 -1.34375q0.734375 0 1.34375 0.265625q0.625 0.265625 0.9375 0.703125q0.3125 0.421875 0.4375 1.015625q0.078125 0.390625 0.078125 1.34375l0 5.03125l-1.390625 0l0 -4.96875q0 -0.84375 -0.171875 -1.265625q-0.15625 -0.421875 -0.5625 -0.671875q-0.40625 -0.25 -0.96875 -0.25q-0.890625 0 -1.53125 0.5625q-0.640625 0.5625 -0.640625 2.125l0 4.46875l-1.375 0zm14.064941 0l0 -1.03125q-0.78125 1.21875 -2.28125 1.21875q-0.984375 0 -1.8125 -0.53125q-0.8125 -0.546875 -1.265625 -1.515625q-0.453125 -0.96875 -0.453125 -2.21875q0 -1.21875 0.40625 -2.21875q0.421875 -1.0 1.234375 -1.53125q0.8125 -0.53125 1.828125 -0.53125q0.734375 0 1.3125 0.3125q0.578125 0.3125 0.9375 0.8125l0 -4.046875l1.375 0l0 11.28125l-1.28125 0zm-4.375 -4.078125q0 1.5625 0.65625 2.34375q0.65625 0.78125 1.5625 0.78125q0.90625 0 1.53125 -0.734375q0.640625 -0.75 0.640625 -2.28125q0 -1.671875 -0.640625 -2.453125q-0.640625 -0.796875 -1.59375 -0.796875q-0.921875 0 -1.546875 0.765625q-0.609375 0.75 -0.609375 2.375z" fill-rule="nonzero"/><path fill="#000000" d="m589.3406 245.83783l0 -11.28125l7.609375 0l0 1.328125l-6.125 0l0 3.5l5.296875 0l0 1.328125l-5.296875 0l0 5.125l-1.484375 0zm14.708435 -1.015625q-0.765625 0.65625 -1.484375 0.9375q-0.703125 0.265625 -1.53125 0.265625q-1.34375 0 -2.078125 -0.65625q-0.71875 -0.65625 -0.71875 -1.6875q0 -0.59375 0.265625 -1.09375q0.28125 -0.5 0.71875 -0.796875q0.453125 -0.296875 1.015625 -0.453125q0.40625 -0.109375 1.21875 -0.21875q1.6875 -0.1875 2.484375 -0.46875q0 -0.28125 0 -0.359375q0 -0.84375 -0.390625 -1.203125q-0.53125 -0.46875 -1.578125 -0.46875q-0.984375 0 -1.453125 0.34375q-0.453125 0.34375 -0.6875 1.21875l-1.34375 -0.1875q0.1875 -0.875 0.609375 -1.40625q0.421875 -0.53125 1.21875 -0.8125q0.796875 -0.296875 1.859375 -0.296875q1.046875 0 1.6875 0.25q0.65625 0.234375 0.96875 0.609375q0.3125 0.375 0.4375 0.953125q0.0625 0.34375 0.0625 1.28125l0 1.84375q0 1.921875 0.09375 2.4375q0.09375 0.515625 0.34375 0.984375l-1.4375 0q-0.21875 -0.4375 -0.28125 -1.015625zm-0.109375 -3.09375q-0.765625 0.3125 -2.265625 0.53125q-0.859375 0.125 -1.21875 0.28125q-0.34375 0.140625 -0.546875 0.4375q-0.1875 0.296875 -0.1875 0.671875q0 0.546875 0.421875 0.921875q0.421875 0.359375 1.21875 0.359375q0.8125 0 1.4375 -0.34375q0.625 -0.34375 0.90625 -0.953125q0.234375 -0.46875 0.234375 -1.390625l0 -0.515625zm2.9868164 1.671875l1.375 -0.21875q0.109375 0.828125 0.640625 1.265625q0.53125 0.4375 1.46875 0.4375q0.953125 0 1.40625 -0.390625q0.46875 -0.390625 0.46875 -0.90625q0 -0.46875 -0.40625 -0.75q-0.28125 -0.171875 -1.40625 -0.46875q-1.53125 -0.375 -2.125 -0.65625q-0.578125 -0.28125 -0.890625 -0.78125q-0.296875 -0.5 -0.296875 -1.09375q0 -0.546875 0.25 -1.015625q0.25 -0.46875 0.671875 -0.78125q0.328125 -0.234375 0.890625 -0.390625q0.5625 -0.171875 1.1875 -0.171875q0.96875 0 1.6875 0.28125q0.734375 0.265625 1.078125 0.75q0.34375 0.46875 0.484375 1.265625l-1.359375 0.1875q-0.09375 -0.640625 -0.53125 -0.984375q-0.4375 -0.359375 -1.25 -0.359375q-0.953125 0 -1.359375 0.3125q-0.40625 0.3125 -0.40625 0.734375q0 0.28125 0.15625 0.484375q0.171875 0.234375 0.53125 0.375q0.21875 0.078125 1.234375 0.359375q1.46875 0.390625 2.046875 0.640625q0.578125 0.25 0.90625 0.734375q0.34375 0.46875 0.34375 1.171875q0 0.703125 -0.40625 1.3125q-0.40625 0.609375 -1.171875 0.953125q-0.765625 0.328125 -1.71875 0.328125q-1.59375 0 -2.4375 -0.65625q-0.828125 -0.671875 -1.0625 -1.96875zm11.4609375 1.203125l0.203125 1.21875q-0.59375 0.125 -1.046875 0.125q-0.75 0 -1.171875 -0.234375q-0.421875 -0.25 -0.59375 -0.625q-0.15625 -0.390625 -0.15625 -1.640625l0 -4.703125l-1.015625 0l0 -1.078125l1.015625 0l0 -2.03125l1.375 -0.828125l0 2.859375l1.390625 0l0 1.078125l-1.390625 0l0 4.78125q0 0.59375 0.0625 0.765625q0.078125 0.15625 0.25 0.265625q0.171875 0.09375 0.46875 0.09375q0.234375 0 0.609375 -0.046875zm0.817688 -2.15625l0 -1.390625l4.25 0l0 1.390625l-4.25 0zm4.734497 3.390625l4.328125 -11.28125l1.609375 0l4.609375 11.28125l-1.6875 0l-1.328125 -3.421875l-4.71875 0l-1.234375 3.421875l-1.578125 0zm3.25 -4.640625l3.828125 0l-1.1875 -3.125q-0.53125 -1.421875 -0.796875 -2.328125q-0.21875 1.078125 -0.609375 2.15625l-1.234375 3.296875zm8.499878 4.640625l0 -11.28125l4.25 0q1.125 0 1.71875 0.109375q0.828125 0.140625 1.390625 0.53125q0.5625 0.375 0.90625 1.078125q0.34375 0.703125 0.34375 1.546875q0 1.4375 -0.921875 2.4375q-0.90625 0.984375 -3.296875 0.984375l-2.90625 0l0 4.59375l-1.484375 0zm1.484375 -5.921875l2.921875 0q1.453125 0 2.0625 -0.53125q0.609375 -0.546875 0.609375 -1.515625q0 -0.71875 -0.359375 -1.21875q-0.359375 -0.5 -0.953125 -0.671875q-0.375 -0.09375 -1.390625 -0.09375l-2.890625 0l0 4.03125zm9.281189 5.921875l0 -11.28125l1.5 0l0 11.28125l-1.5 0zm2.911438 0.1875l3.265625 -11.671875l1.109375 0l-3.265625 11.671875l-1.109375 0zm5.598999 -0.1875l0 -11.28125l4.25 0q1.125 0 1.71875 0.109375q0.828125 0.140625 1.390625 0.53125q0.5625 0.375 0.90625 1.078125q0.34375 0.703125 0.34375 1.546875q0 1.4375 -0.921875 2.4375q-0.90625 0.984375 -3.296875 0.984375l-2.90625 0l0 4.59375l-1.484375 0zm1.484375 -5.921875l2.921875 0q1.453125 0 2.0625 -0.53125q0.609375 -0.546875 0.609375 -1.515625q0 -0.71875 -0.359375 -1.21875q-0.359375 -0.5 -0.953125 -0.671875q-0.375 -0.09375 -1.390625 -0.09375l-2.890625 0l0 4.03125zm8.796753 9.078125l-0.15625 -1.3125q0.453125 0.125 0.78125 0.125q0.46875 0 0.734375 -0.15625q0.28125 -0.15625 0.46875 -0.421875q0.125 -0.21875 0.421875 -1.03125q0.03125 -0.125 0.125 -0.34375l-3.109375 -8.1875l1.5 0l1.703125 4.734375q0.328125 0.890625 0.59375 1.890625q0.234375 -0.953125 0.5625 -1.859375l1.75 -4.765625l1.390625 0l-3.109375 8.3125q-0.5 1.34375 -0.78125 1.859375q-0.375 0.671875 -0.859375 0.984375q-0.46875 0.328125 -1.125 0.328125q-0.40625 0 -0.890625 -0.15625zm10.9609375 -4.390625l0.203125 1.21875q-0.59375 0.125 -1.046875 0.125q-0.75 0 -1.171875 -0.234375q-0.421875 -0.25 -0.59375 -0.625q-0.15625 -0.390625 -0.15625 -1.640625l0 -4.703125l-1.015625 0l0 -1.078125l1.015625 0l0 -2.03125l1.375 -0.828125l0 2.859375l1.390625 0l0 1.078125l-1.390625 0l0 4.78125q0 0.59375 0.0625 0.765625q0.078125 0.15625 0.25 0.265625q0.171875 0.09375 0.46875 0.09375q0.234375 0 0.609375 -0.046875zm1.364624 1.234375l0 -11.28125l1.375 0l0 4.046875q0.96875 -1.125 2.453125 -1.125q0.90625 0 1.578125 0.359375q0.671875 0.359375 0.953125 1.0q0.296875 0.625 0.296875 1.8125l0 5.1875l-1.390625 0l0 -5.1875q0 -1.03125 -0.453125 -1.5q-0.453125 -0.484375 -1.265625 -0.484375q-0.625 0 -1.171875 0.328125q-0.53125 0.3125 -0.765625 0.859375q-0.234375 0.546875 -0.234375 1.515625l0 4.46875l-1.375 0zm8.252441 -4.09375q0 -2.265625 1.25 -3.359375q1.0625 -0.90625 2.578125 -0.90625q1.6875 0 2.75 1.109375q1.078125 1.09375 1.078125 3.046875q0 1.578125 -0.484375 2.484375q-0.46875 0.90625 -1.375 1.40625q-0.90625 0.5 -1.96875 0.5q-1.71875 0 -2.78125 -1.09375q-1.046875 -1.109375 -1.046875 -3.1875zm1.421875 0q0 1.578125 0.671875 2.359375q0.6875 0.78125 1.734375 0.78125q1.03125 0 1.71875 -0.78125q0.6875 -0.796875 0.6875 -2.40625q0 -1.515625 -0.703125 -2.296875q-0.6875 -0.78125 -1.703125 -0.78125q-1.046875 0 -1.734375 0.78125q-0.671875 0.78125 -0.671875 2.34375zm7.8618774 4.09375l0 -8.171875l1.234375 0l0 1.15625q0.90625 -1.34375 2.609375 -1.34375q0.734375 0 1.34375 0.265625q0.625 0.265625 0.9375 0.703125q0.3125 0.421875 0.4375 1.015625q0.078125 0.390625 0.078125 1.34375l0 5.03125l-1.390625 0l0 -4.96875q0 -0.84375 -0.171875 -1.265625q-0.15625 -0.421875 -0.5625 -0.671875q-0.40625 -0.25 -0.96875 -0.25q-0.890625 0 -1.53125 0.5625q-0.640625 0.5625 -0.640625 2.125l0 4.46875l-1.375 0z" fill-rule="nonzero"/><path fill="#eeeeee" d="m581.5944 412.62787l0 0c0 -6.6333313 5.3773804 -12.010742 12.010742 -12.010742l103.66351 0c3.1854858 0 6.2404785 1.2654419 8.49292 3.5178833c2.2524414 2.2524414 3.5178223 5.307434 3.5178223 8.492859l0 48.041534c0 6.6333313 -5.3773804 12.010742 -12.010742 12.010742l-103.66351 0c-6.633362 0 -12.010742 -5.377411 -12.010742 -12.010742z" fill-rule="evenodd"/><path stroke="#595959" stroke-width="0.84251968503937" stroke-linejoin="round" stroke-linecap="butt" d="m581.5944 412.62787l0 0c0 -6.6333313 5.3773804 -12.010742 12.010742 -12.010742l103.66351 0c3.1854858 0 6.2404785 1.2654419 8.49292 3.5178833c2.2524414 2.2524414 3.5178223 5.307434 3.5178223 8.492859l0 48.041534c0 6.6333313 -5.3773804 12.010742 -12.010742 12.010742l-103.66351 0c-6.633362 0 -12.010742 -5.377411 -12.010742 -12.010742z" fill-rule="evenodd"/><path fill="#000000" d="m615.9263 432.78708l4.328125 -11.28125l1.609375 0l4.609375 11.28125l-1.6875 0l-1.328125 -3.421875l-4.71875 0l-1.234375 3.421875l-1.578125 0zm3.25 -4.640625l3.828125 0l-1.1875 -3.125q-0.53125 -1.421875 -0.796875 -2.328125q-0.21875 1.078125 -0.609375 2.15625l-1.234375 3.296875zm9.883484 4.640625l-3.0 -11.28125l1.53125 0l1.71875 7.390625q0.28125 1.171875 0.484375 2.3125q0.421875 -1.8125 0.5 -2.09375l2.15625 -7.609375l1.796875 0l1.609375 5.703125q0.609375 2.125 0.890625 4.0q0.203125 -1.0625 0.5625 -2.453125l1.765625 -7.25l1.5 0l-3.09375 11.28125l-1.4375 0l-2.375 -8.59375q-0.3125 -1.078125 -0.359375 -1.328125q-0.171875 0.78125 -0.328125 1.328125l-2.390625 8.59375l-1.53125 0zm12.395935 -3.625l1.40625 -0.125q0.109375 0.84375 0.46875 1.390625q0.375 0.546875 1.140625 0.890625q0.765625 0.328125 1.734375 0.328125q0.859375 0 1.5 -0.25q0.65625 -0.265625 0.96875 -0.703125q0.328125 -0.453125 0.328125 -0.96875q0 -0.53125 -0.3125 -0.921875q-0.296875 -0.40625 -1.015625 -0.671875q-0.453125 -0.171875 -2.015625 -0.546875q-1.546875 -0.375 -2.171875 -0.703125q-0.796875 -0.421875 -1.203125 -1.046875q-0.390625 -0.640625 -0.390625 -1.421875q0 -0.84375 0.484375 -1.578125q0.484375 -0.75 1.40625 -1.140625q0.9375 -0.390625 2.078125 -0.390625q1.25 0 2.203125 0.40625q0.96875 0.40625 1.484375 1.203125q0.515625 0.78125 0.5625 1.765625l-1.4375 0.109375q-0.109375 -1.0625 -0.78125 -1.609375q-0.671875 -0.546875 -1.96875 -0.546875q-1.359375 0 -1.984375 0.5q-0.609375 0.484375 -0.609375 1.1875q0 0.609375 0.4375 1.0q0.4375 0.390625 2.25 0.8125q1.828125 0.40625 2.5 0.71875q0.984375 0.453125 1.453125 1.15625q0.46875 0.6875 0.46875 1.59375q0 0.90625 -0.515625 1.703125q-0.515625 0.796875 -1.484375 1.234375q-0.953125 0.4375 -2.171875 0.4375q-1.53125 0 -2.5625 -0.4375q-1.03125 -0.453125 -1.625 -1.34375q-0.59375 -0.90625 -0.625 -2.03125zm14.895752 0l1.40625 -0.125q0.109375 0.84375 0.46875 1.390625q0.375 0.546875 1.140625 0.890625q0.765625 0.328125 1.734375 0.328125q0.859375 0 1.5 -0.25q0.65625 -0.265625 0.96875 -0.703125q0.328125 -0.453125 0.328125 -0.96875q0 -0.53125 -0.3125 -0.921875q-0.296875 -0.40625 -1.015625 -0.671875q-0.453125 -0.171875 -2.015625 -0.546875q-1.546875 -0.375 -2.171875 -0.703125q-0.796875 -0.421875 -1.203125 -1.046875q-0.390625 -0.640625 -0.390625 -1.421875q0 -0.84375 0.484375 -1.578125q0.484375 -0.75 1.40625 -1.140625q0.9375 -0.390625 2.078125 -0.390625q1.25 0 2.203125 0.40625q0.96875 0.40625 1.484375 1.203125q0.515625 0.78125 0.5625 1.765625l-1.4375 0.109375q-0.109375 -1.0625 -0.78125 -1.609375q-0.671875 -0.546875 -1.96875 -0.546875q-1.359375 0 -1.984375 0.5q-0.609375 0.484375 -0.609375 1.1875q0 0.609375 0.4375 1.0q0.4375 0.390625 2.25 0.8125q1.828125 0.40625 2.5 0.71875q0.984375 0.453125 1.453125 1.15625q0.46875 0.6875 0.46875 1.59375q0 0.90625 -0.515625 1.703125q-0.515625 0.796875 -1.484375 1.234375q-0.953125 0.4375 -2.171875 0.4375q-1.53125 0 -2.5625 -0.4375q-1.03125 -0.453125 -1.625 -1.34375q-0.59375 -0.90625 -0.625 -2.03125zm10.468689 0.640625l1.390625 -0.171875q0.234375 1.171875 0.8125 1.6875q0.578125 0.515625 1.390625 0.515625q0.984375 0 1.65625 -0.671875q0.671875 -0.671875 0.671875 -1.671875q0 -0.953125 -0.625 -1.578125q-0.625 -0.625 -1.578125 -0.625q-0.390625 0 -0.984375 0.15625l0.15625 -1.21875q0.140625 0.015625 0.21875 0.015625q0.890625 0 1.59375 -0.453125q0.71875 -0.46875 0.71875 -1.421875q0 -0.765625 -0.515625 -1.265625q-0.515625 -0.5 -1.34375 -0.5q-0.796875 0 -1.34375 0.515625q-0.53125 0.5 -0.6875 1.515625l-1.390625 -0.25q0.25 -1.390625 1.15625 -2.15625q0.90625 -0.765625 2.25 -0.765625q0.921875 0 1.6875 0.40625q0.78125 0.390625 1.1875 1.078125q0.421875 0.671875 0.421875 1.4375q0 0.734375 -0.390625 1.34375q-0.390625 0.59375 -1.171875 0.953125q1.0 0.234375 1.546875 0.96875q0.5625 0.71875 0.5625 1.8125q0 1.46875 -1.078125 2.5q-1.078125 1.03125 -2.71875 1.03125q-1.484375 0 -2.46875 -0.890625q-0.984375 -0.890625 -1.125 -2.296875z" fill-rule="nonzero"/><path fill="#000000" d="m624.52435 451.78708l-1.28125 0l0 -11.28125l1.390625 0l0 4.015625q0.875 -1.09375 2.234375 -1.09375q0.75 0 1.421875 0.3125q0.6875 0.296875 1.109375 0.84375q0.4375 0.546875 0.6875 1.328125q0.25 0.78125 0.25 1.671875q0 2.09375 -1.046875 3.25q-1.03125 1.140625 -2.484375 1.140625q-1.453125 0 -2.28125 -1.21875l0 1.03125zm-0.015625 -4.15625q0 1.484375 0.40625 2.125q0.65625 1.078125 1.765625 1.078125q0.90625 0 1.5625 -0.78125q0.671875 -0.796875 0.671875 -2.359375q0 -1.609375 -0.640625 -2.359375q-0.625 -0.765625 -1.53125 -0.765625q-0.90625 0 -1.578125 0.796875q-0.65625 0.78125 -0.65625 2.265625zm12.861877 4.15625l0 -1.203125q-0.953125 1.390625 -2.59375 1.390625q-0.71875 0 -1.34375 -0.28125q-0.625 -0.28125 -0.9375 -0.6875q-0.296875 -0.421875 -0.421875 -1.03125q-0.078125 -0.40625 -0.078125 -1.296875l0 -5.0625l1.375 0l0 4.53125q0 1.078125 0.09375 1.46875q0.125 0.546875 0.546875 0.859375q0.421875 0.296875 1.046875 0.296875q0.625 0 1.171875 -0.3125q0.546875 -0.3125 0.765625 -0.859375q0.234375 -0.5625 0.234375 -1.609375l0 -4.375l1.390625 0l0 8.171875l-1.25 0zm8.752441 -3.0l1.359375 0.1875q-0.21875 1.40625 -1.140625 2.203125q-0.921875 0.796875 -2.265625 0.796875q-1.671875 0 -2.703125 -1.09375q-1.015625 -1.109375 -1.015625 -3.15625q0 -1.3125 0.4375 -2.296875q0.453125 -1.0 1.34375 -1.5q0.890625 -0.5 1.953125 -0.5q1.328125 0 2.171875 0.671875q0.84375 0.671875 1.09375 1.90625l-1.34375 0.21875q-0.203125 -0.828125 -0.6875 -1.234375q-0.484375 -0.421875 -1.1875 -0.421875q-1.046875 0 -1.703125 0.75q-0.640625 0.75 -0.640625 2.375q0 1.640625 0.625 2.390625q0.625 0.75 1.640625 0.75q0.828125 0 1.375 -0.5q0.546875 -0.5 0.6875 -1.546875zm2.5546875 3.0l0 -11.28125l1.390625 0l0 6.4375l3.28125 -3.328125l1.78125 0l-3.125 3.03125l3.453125 5.140625l-1.71875 0l-2.703125 -4.1875l-0.96875 0.953125l0 3.234375l-1.390625 0zm13.4765625 -2.625l1.421875 0.171875q-0.328125 1.25 -1.25 1.953125q-0.921875 0.6875 -2.34375 0.6875q-1.796875 0 -2.84375 -1.109375q-1.046875 -1.109375 -1.046875 -3.09375q0 -2.0625 1.0625 -3.203125q1.0625 -1.140625 2.75 -1.140625q1.640625 0 2.671875 1.125q1.046875 1.109375 1.046875 3.125q0 0.125 0 0.375l-6.09375 0q0.078125 1.34375 0.75 2.0625q0.6875 0.71875 1.71875 0.71875q0.765625 0 1.296875 -0.390625q0.53125 -0.40625 0.859375 -1.28125zm-4.546875 -2.25l4.5625 0q-0.09375 -1.03125 -0.53125 -1.546875q-0.65625 -0.796875 -1.71875 -0.796875q-0.953125 0 -1.609375 0.640625q-0.640625 0.640625 -0.703125 1.703125zm10.736877 3.640625l0.203125 1.21875q-0.59375 0.125 -1.046875 0.125q-0.75 0 -1.171875 -0.234375q-0.421875 -0.25 -0.59375 -0.625q-0.15625 -0.390625 -0.15625 -1.640625l0 -4.703125l-1.015625 0l0 -1.078125l1.015625 0l0 -2.03125l1.375 -0.828125l0 2.859375l1.390625 0l0 1.078125l-1.390625 0l0 4.78125q0 0.59375 0.0625 0.765625q0.078125 0.15625 0.25 0.265625q0.171875 0.09375 0.46875 0.09375q0.234375 0 0.609375 -0.046875z" fill-rule="nonzero"/><path fill="#000000" fill-opacity="0.0" d="m314.52234 205.70866l52.75589 0" fill-rule="evenodd"/><path stroke="#595959" stroke-width="0.84251968503937" stroke-linejoin="round" stroke-linecap="butt" d="m314.52234 205.70866l47.700806 0" fill-rule="evenodd"/><path fill="#595959" stroke="#595959" stroke-width="0.84251968503937" stroke-linecap="butt" d="m362.22314 207.10028l3.8234253 -1.3916168l-3.8234253 -1.3916168z" fill-rule="evenodd"/><path fill="#000000" fill-opacity="0.0" d="m495.25723 209.37007l78.9606 -0.37794495" fill-rule="evenodd"/><path stroke="#595959" stroke-width="0.84251968503937" stroke-linejoin="round" stroke-linecap="butt" d="m495.25723 209.37007l73.90555 -0.3537445" fill-rule="evenodd"/><path fill="#595959" stroke="#595959" stroke-width="0.84251968503937" stroke-linecap="butt" d="m569.16943 210.40793l3.8167725 -1.4099121l-3.8300781 -1.373291z" fill-rule="evenodd"/><path fill="#000000" fill-opacity="0.0" d="m676.1076 266.2126l-0.18896484 133.44882" fill-rule="evenodd"/><path stroke="#595959" stroke-width="0.84251968503937" stroke-linejoin="round" stroke-linecap="butt" d="m676.1076 266.2126l-0.1817627 128.3937" fill-rule="evenodd"/><path fill="#595959" stroke="#595959" stroke-width="0.84251968503937" stroke-linecap="butt" d="m674.5342 394.60434l1.3861694 3.825409l1.3970337 -3.8214722z" fill-rule="evenodd"/><path fill="#000000" fill-opacity="0.0" d="m609.2362 400.58005l1.1653442 -133.85828" fill-rule="evenodd"/><path stroke="#595959" stroke-width="0.84251968503937" stroke-linejoin="round" stroke-linecap="butt" d="m609.2362 400.58005l1.1213379 -128.80331" fill-rule="evenodd"/><path fill="#595959" stroke="#595959" stroke-width="0.84251968503937" stroke-linecap="butt" d="m611.74915 271.78882l-1.3582764 -3.8353882l-1.4248657 3.8111572z" fill-rule="evenodd"/><path fill="#000000" fill-opacity="0.0" d="m294.87927 30.047245l358.96063 0l0 77.5748l-358.96063 0z" fill-rule="evenodd"/><path fill="#595959" d="m319.22287 56.493496l3.375 -0.328125q0.296875 1.703125 1.21875 2.5q0.9375 0.796875 2.53125 0.796875q1.671875 0 2.515625 -0.703125q0.859375 -0.71875 0.859375 -1.671875q0 -0.609375 -0.359375 -1.03125q-0.359375 -0.421875 -1.25 -0.75q-0.609375 -0.203125 -2.78125 -0.75q-2.78125 -0.6875 -3.90625 -1.6875q-1.59375 -1.421875 -1.59375 -3.46875q0 -1.3125 0.75 -2.453125q0.75 -1.140625 2.140625 -1.734375q1.40625 -0.59375 3.390625 -0.59375q3.234375 0 4.859375 1.421875q1.640625 1.40625 1.71875 3.78125l-3.46875 0.140625q-0.21875 -1.3125 -0.953125 -1.890625q-0.734375 -0.59375 -2.203125 -0.59375q-1.5 0 -2.359375 0.625q-0.546875 0.40625 -0.546875 1.0625q0 0.609375 0.515625 1.046875q0.65625 0.546875 3.1875 1.15625q2.53125 0.59375 3.734375 1.234375q1.21875 0.640625 1.90625 1.75q0.6875 1.09375 0.6875 2.734375q0 1.46875 -0.828125 2.765625q-0.8125 1.28125 -2.3125 1.921875q-1.5 0.625 -3.75 0.625q-3.25 0 -5.0 -1.5q-1.75 -1.515625 -2.078125 -4.40625zm22.570312 -6.859375l0 2.625l-2.25 0l0 5.015625q0 1.53125 0.0625 1.78125q0.0625 0.25 0.28125 0.421875q0.234375 0.15625 0.5625 0.15625q0.453125 0 1.328125 -0.3125l0.28125 2.546875q-1.15625 0.5 -2.609375 0.5q-0.890625 0 -1.609375 -0.296875q-0.703125 -0.296875 -1.046875 -0.765625q-0.328125 -0.484375 -0.453125 -1.296875q-0.109375 -0.578125 -0.109375 -2.3125l0 -5.4375l-1.515625 0l0 -2.625l1.515625 0l0 -2.46875l3.3125 -1.921875l0 4.390625l2.25 0zm5.4296875 12.453125l-3.296875 0l0 -12.453125l3.0625 0l0 1.78125q0.78125 -1.265625 1.40625 -1.65625q0.640625 -0.40625 1.4375 -0.40625q1.125 0 2.15625 0.625l-1.015625 2.875q-0.828125 -0.546875 -1.546875 -0.546875q-0.6875 0 -1.171875 0.390625q-0.484375 0.375 -0.765625 1.375q-0.265625 1.0 -0.265625 4.171875l0 3.84375zm14.386719 0l0 -1.859375q-0.6875 0.984375 -1.796875 1.5625q-1.109375 0.578125 -2.328125 0.578125q-1.265625 0 -2.265625 -0.546875q-0.984375 -0.5625 -1.4375 -1.546875q-0.4375 -1.0 -0.4375 -2.765625l0 -7.875l3.296875 0l0 5.71875q0 2.625 0.171875 3.21875q0.1875 0.59375 0.65625 0.9375q0.484375 0.34375 1.234375 0.34375q0.84375 0 1.5 -0.453125q0.671875 -0.46875 0.921875 -1.15625q0.25 -0.6875 0.25 -3.359375l0 -5.25l3.28125 0l0 12.453125l-3.046875 0zm17.316406 -8.765625l-3.25 0.578125q-0.15625 -0.96875 -0.75 -1.453125q-0.578125 -0.5 -1.5 -0.5q-1.234375 0 -1.96875 0.859375q-0.71875 0.84375 -0.71875 2.828125q0 2.21875 0.734375 3.140625q0.75 0.90625 2.0 0.90625q0.9375 0 1.53125 -0.53125q0.609375 -0.53125 0.84375 -1.828125l3.234375 0.546875q-0.5 2.21875 -1.9375 3.359375q-1.421875 1.140625 -3.828125 1.140625q-2.71875 0 -4.34375 -1.71875q-1.625 -1.734375 -1.625 -4.78125q0 -3.078125 1.625 -4.796875q1.625 -1.71875 4.40625 -1.71875q2.28125 0 3.609375 0.984375q1.34375 0.984375 1.9375 2.984375zm8.207031 -3.6875l0 2.625l-2.25 0l0 5.015625q0 1.53125 0.0625 1.78125q0.0625 0.25 0.28125 0.421875q0.234375 0.15625 0.5625 0.15625q0.453125 0 1.328125 -0.3125l0.28125 2.546875q-1.15625 0.5 -2.609375 0.5q-0.890625 0 -1.609375 -0.296875q-0.703125 -0.296875 -1.046875 -0.765625q-0.328125 -0.484375 -0.453125 -1.296875q-0.109375 -0.578125 -0.109375 -2.3125l0 -5.4375l-1.515625 0l0 -2.625l1.515625 0l0 -2.46875l3.3125 -1.921875l0 4.390625l2.25 0zm10.4765625 12.453125l0 -1.859375q-0.6875 0.984375 -1.796875 1.5625q-1.109375 0.578125 -2.328125 0.578125q-1.265625 0 -2.265625 -0.546875q-0.984375 -0.5625 -1.4375 -1.546875q-0.4375 -1.0 -0.4375 -2.765625l0 -7.875l3.296875 0l0 5.71875q0 2.625 0.171875 3.21875q0.1875 0.59375 0.65625 0.9375q0.484375 0.34375 1.234375 0.34375q0.84375 0 1.5 -0.453125q0.671875 -0.46875 0.921875 -1.15625q0.25 -0.6875 0.25 -3.359375l0 -5.25l3.28125 0l0 12.453125l-3.046875 0zm9.613281 0l-3.296875 0l0 -12.453125l3.0625 0l0 1.78125q0.78125 -1.265625 1.40625 -1.65625q0.640625 -0.40625 1.4375 -0.40625q1.125 0 2.15625 0.625l-1.015625 2.875q-0.828125 -0.546875 -1.546875 -0.546875q-0.6875 0 -1.171875 0.390625q-0.484375 0.375 -0.765625 1.375q-0.265625 1.0 -0.265625 4.171875l0 3.84375zm13.402344 -3.96875l3.28125 0.5625q-0.640625 1.796875 -2.015625 2.75q-1.359375 0.9375 -3.40625 0.9375q-3.25 0 -4.796875 -2.125q-1.234375 -1.703125 -1.234375 -4.28125q0 -3.09375 1.609375 -4.84375q1.625 -1.765625 4.09375 -1.765625q2.78125 0 4.375 1.84375q1.609375 1.828125 1.546875 5.609375l-8.25 0q0.03125 1.46875 0.796875 2.28125q0.765625 0.8125 1.890625 0.8125q0.78125 0 1.296875 -0.421875q0.53125 -0.421875 0.8125 -1.359375zm0.1875 -3.328125q-0.046875 -1.421875 -0.75 -2.15625q-0.703125 -0.75 -1.703125 -0.75q-1.078125 0 -1.78125 0.78125q-0.703125 0.78125 -0.6875 2.125l4.921875 0zm11.859375 0.890625q0 -1.640625 0.796875 -3.171875q0.8125 -1.53125 2.296875 -2.34375q1.484375 -0.8125 3.3125 -0.8125q2.828125 0 4.625 1.84375q1.8125 1.828125 1.8125 4.625q0 2.828125 -1.828125 4.6875q-1.828125 1.859375 -4.59375 1.859375q-1.703125 0 -3.265625 -0.765625q-1.546875 -0.78125 -2.359375 -2.265625q-0.796875 -1.5 -0.796875 -3.65625zm3.375 0.1875q0 1.84375 0.875 2.828125q0.875 0.984375 2.171875 0.984375q1.28125 0 2.15625 -0.984375q0.875 -0.984375 0.875 -2.859375q0 -1.828125 -0.875 -2.8125q-0.875 -0.984375 -2.15625 -0.984375q-1.296875 0 -2.171875 0.984375q-0.875 0.984375 -0.875 2.84375zm10.597656 -6.234375l1.828125 0l0 -0.9375q0 -1.5625 0.328125 -2.328125q0.34375 -0.78125 1.234375 -1.265625q0.90625 -0.484375 2.265625 -0.484375q1.40625 0 2.765625 0.421875l-0.453125 2.296875q-0.78125 -0.1875 -1.515625 -0.1875q-0.703125 0 -1.015625 0.328125q-0.3125 0.328125 -0.3125 1.28125l0 0.875l2.453125 0l0 2.59375l-2.453125 0l0 9.859375l-3.296875 0l0 -9.859375l-1.828125 0l0 -2.59375zm21.816406 0l0 2.625l-2.25 0l0 5.015625q0 1.53125 0.0625 1.78125q0.0625 0.25 0.28125 0.421875q0.234375 0.15625 0.5625 0.15625q0.453125 0 1.328125 -0.3125l0.28125 2.546875q-1.15625 0.5 -2.609375 0.5q-0.890625 0 -1.609375 -0.296875q-0.703125 -0.296875 -1.046875 -0.765625q-0.328125 -0.484375 -0.453125 -1.296875q-0.109375 -0.578125 -0.109375 -2.3125l0 -5.4375l-1.515625 0l0 -2.625l1.515625 0l0 -2.46875l3.3125 -1.921875l0 4.390625l2.25 0zm5.5546875 -4.734375l0 6.328125q1.59375 -1.875 3.8125 -1.875q1.140625 0 2.046875 0.421875q0.921875 0.421875 1.375 1.078125q0.46875 0.65625 0.640625 1.453125q0.171875 0.796875 0.171875 2.484375l0 7.296875l-3.296875 0l0 -6.578125q0 -1.953125 -0.1875 -2.484375q-0.1875 -0.53125 -0.671875 -0.828125q-0.46875 -0.3125 -1.171875 -0.3125q-0.828125 0 -1.46875 0.40625q-0.640625 0.390625 -0.953125 1.1875q-0.296875 0.796875 -0.296875 2.375l0 6.234375l-3.28125 0l0 -17.1875l3.28125 0zm18.597656 13.21875l3.28125 0.5625q-0.640625 1.796875 -2.015625 2.75q-1.359375 0.9375 -3.40625 0.9375q-3.25 0 -4.796875 -2.125q-1.234375 -1.703125 -1.234375 -4.28125q0 -3.09375 1.609375 -4.84375q1.625 -1.765625 4.09375 -1.765625q2.78125 0 4.375 1.84375q1.609375 1.828125 1.546875 5.609375l-8.25 0q0.03125 1.46875 0.796875 2.28125q0.765625 0.8125 1.890625 0.8125q0.78125 0 1.296875 -0.421875q0.53125 -0.421875 0.8125 -1.359375zm0.1875 -3.328125q-0.046875 -1.421875 -0.75 -2.15625q-0.703125 -0.75 -1.703125 -0.75q-1.078125 0 -1.78125 0.78125q-0.703125 0.78125 -0.6875 2.125l4.921875 0zm15.078125 -1.359375l-2.984375 -0.53125q0.5 -1.8125 1.71875 -2.671875q1.234375 -0.875 3.671875 -0.875q2.2030945 0 3.2812195 0.53125q1.078125 0.515625 1.515625 1.328125q0.4375 0.796875 0.4375 2.9375l-0.03125 3.84375q0 1.640625 0.15625 2.421875q0.15625 0.78125 0.59375 1.671875l-3.265625 0q-0.125 -0.328125 -0.3125 -0.96875q-0.078125 -0.296875 -0.125 -0.390625q-0.8437195 0.8125 -1.8124695 1.234375q-0.953125 0.40625 -2.03125 0.40625q-1.921875 0 -3.03125 -1.046875q-1.109375 -1.046875 -1.109375 -2.640625q0 -1.046875 0.5 -1.875q0.5 -0.828125 1.40625 -1.265625q0.921875 -0.4375 2.625 -0.765625q2.3125 -0.4375 3.2030945 -0.8125l0 -0.328125q0 -0.953125 -0.46871948 -1.34375q-0.46875 -0.40625 -1.765625 -0.40625q-0.890625 0 -1.390625 0.34375q-0.484375 0.34375 -0.78125 1.203125zm4.4062195 2.671875q-0.6405945 0.21875 -2.0155945 0.515625q-1.359375 0.28125 -1.78125 0.5625q-0.640625 0.46875 -0.640625 1.171875q0 0.6875 0.515625 1.1875q0.515625 0.5 1.3125 0.5q0.890625 0 1.6875 -0.578125q0.609375 -0.453125 0.7968445 -1.09375q0.125 -0.421875 0.125 -1.609375l0 -0.65625zm6.3789062 -6.46875l3.078125 0l0 1.828125q0.59375 -0.9375 1.609375 -1.515625q1.03125 -0.59375 2.265625 -0.59375q2.171875 0 3.671875 1.703125q1.515625 1.703125 1.515625 4.734375q0 3.125 -1.53125 4.859375q-1.515625 1.71875 -3.671875 1.71875q-1.03125 0 -1.875 -0.40625q-0.84375 -0.421875 -1.765625 -1.40625l0 6.265621l-3.296875 0l0 -17.187496zm3.265625 6.015625q0 2.09375 0.828125 3.109375q0.828125 1.0 2.03125 1.0q1.140625 0 1.90625 -0.921875q0.765625 -0.921875 0.765625 -3.015625q0 -1.96875 -0.796875 -2.90625q-0.78125 -0.953125 -1.9375 -0.953125q-1.203125 0 -2.0 0.9375q-0.796875 0.921875 -0.796875 2.75zm11.394531 -6.015625l3.078125 0l0 1.828125q0.59375 -0.9375 1.609375 -1.515625q1.03125 -0.59375 2.265625 -0.59375q2.171875 0 3.671875 1.703125q1.515625 1.703125 1.515625 4.734375q0 3.125 -1.53125 4.859375q-1.515625 1.71875 -3.671875 1.71875q-1.03125 0 -1.875 -0.40625q-0.84375 -0.421875 -1.765625 -1.40625l0 6.265621l-3.296875 0l0 -17.187496zm3.265625 6.015625q0 2.09375 0.828125 3.109375q0.828125 1.0 2.03125 1.0q1.140625 0 1.90625 -0.921875q0.765625 -0.921875 0.765625 -3.015625q0 -1.96875 -0.796875 -2.90625q-0.78125 -0.953125 -1.9375 -0.953125q-1.203125 0 -2.0 0.9375q-0.796875 0.921875 -0.796875 2.75zm11.488281 6.4375l0 -17.1875l3.296875 0l0 17.1875l-3.296875 0zm6.6679688 -14.140625l0 -3.046875l3.296875 0l0 3.046875l-3.296875 0zm0 14.140625l0 -12.453125l3.296875 0l0 12.453125l-3.296875 0zm17.527344 -8.765625l-3.25 0.578125q-0.15625 -0.96875 -0.75 -1.453125q-0.578125 -0.5 -1.5 -0.5q-1.234375 0 -1.96875 0.859375q-0.71875 0.84375 -0.71875 2.828125q0 2.21875 0.734375 3.140625q0.75 0.90625 2.0 0.90625q0.9375 0 1.53125 -0.53125q0.609375 -0.53125 0.84375 -1.828125l3.234375 0.546875q-0.5 2.21875 -1.9375 3.359375q-1.421875 1.140625 -3.828125 1.140625q-2.71875 0 -4.34375 -1.71875q-1.625 -1.734375 -1.625 -4.78125q0 -3.078125 1.625 -4.796875q1.625 -1.71875 4.40625 -1.71875q2.28125 0 3.609375 0.984375q1.34375 0.984375 1.9375 2.984375zm4.9570312 0.109375l-2.984375 -0.53125q0.5 -1.8125 1.71875 -2.671875q1.234375 -0.875 3.671875 -0.875q2.203125 0 3.28125 0.53125q1.078125 0.515625 1.515625 1.328125q0.4375 0.796875 0.4375 2.9375l-0.03125 3.84375q0 1.640625 0.15625 2.421875q0.15625 0.78125 0.59375 1.671875l-3.265625 0q-0.125 -0.328125 -0.3125 -0.96875q-0.078125 -0.296875 -0.125 -0.390625q-0.84375 0.8125 -1.8125 1.234375q-0.953125 0.40625 -2.03125 0.40625q-1.921875 0 -3.03125 -1.046875q-1.109375 -1.046875 -1.109375 -2.640625q0 -1.046875 0.5 -1.875q0.5 -0.828125 1.40625 -1.265625q0.921875 -0.4375 2.625 -0.765625q2.3125 -0.4375 3.203125 -0.8125l0 -0.328125q0 -0.953125 -0.46875 -1.34375q-0.46875 -0.40625 -1.765625 -0.40625q-0.890625 0 -1.390625 0.34375q-0.484375 0.34375 -0.78125 1.203125zm4.40625 2.671875q-0.640625 0.21875 -2.015625 0.515625q-1.359375 0.28125 -1.78125 0.5625q-0.640625 0.46875 -0.640625 1.171875q0 0.6875 0.515625 1.1875q0.515625 0.5 1.3125 0.5q0.890625 0 1.6875 -0.578125q0.609375 -0.453125 0.796875 -1.09375q0.125 -0.421875 0.125 -1.609375l0 -0.65625zm12.191406 -6.46875l0 2.625l-2.25 0l0 5.015625q0 1.53125 0.0625 1.78125q0.0625 0.25 0.28125 0.421875q0.234375 0.15625 0.5625 0.15625q0.453125 0 1.328125 -0.3125l0.28125 2.546875q-1.15625 0.5 -2.609375 0.5q-0.890625 0 -1.609375 -0.296875q-0.703125 -0.296875 -1.046875 -0.765625q-0.328125 -0.484375 -0.453125 -1.296875q-0.109375 -0.578125 -0.109375 -2.3125l0 -5.4375l-1.515625 0l0 -2.625l1.515625 0l0 -2.46875l3.3125 -1.921875l0 4.390625l2.25 0zm2.2734375 -1.6875l0 -3.046875l3.296875 0l0 3.046875l-3.296875 0zm0 14.140625l0 -12.453125l3.296875 0l0 12.453125l-3.296875 0zm5.9179688 -6.40625q0 -1.640625 0.796875 -3.171875q0.8125 -1.53125 2.296875 -2.34375q1.484375 -0.8125 3.3125 -0.8125q2.828125 0 4.625 1.84375q1.8125 1.828125 1.8125 4.625q0 2.828125 -1.828125 4.6875q-1.828125 1.859375 -4.59375 1.859375q-1.703125 0 -3.265625 -0.765625q-1.546875 -0.78125 -2.359375 -2.265625q-0.796875 -1.5 -0.796875 -3.65625zm3.375 0.1875q0 1.84375 0.875 2.828125q0.875 0.984375 2.171875 0.984375q1.28125 0 2.15625 -0.984375q0.875 -0.984375 0.875 -2.859375q0 -1.828125 -0.875 -2.8125q-0.875 -0.984375 -2.15625 -0.984375q-1.296875 0 -2.171875 0.984375q-0.875 0.984375 -0.875 2.84375zm23.363281 6.21875l-3.296875 0l0 -6.359375q0 -2.015625 -0.21875 -2.59375q-0.203125 -0.59375 -0.6875 -0.921875q-0.46875 -0.328125 -1.125 -0.328125q-0.859375 0 -1.546875 0.46875q-0.671875 0.46875 -0.921875 1.25q-0.25 0.765625 -0.25 2.84375l0 5.640625l-3.296875 0l0 -12.453125l3.0625 0l0 1.828125q1.625 -2.109375 4.09375 -2.109375q1.09375 0 1.984375 0.40625q0.90625 0.390625 1.375 1.0q0.46875 0.609375 0.640625 1.390625q0.1875 0.765625 0.1875 2.203125l0 7.734375z" fill-rule="nonzero"/><path fill="#595959" d="m389.90256 90.887245l-3.296875 0l0 -12.453125l3.0625 0l0 1.78125q0.78125 -1.265625 1.40625 -1.65625q0.640625 -0.40625 1.4375 -0.40625q1.125 0 2.15625 0.625l-1.015625 2.875q-0.828125 -0.546875 -1.546875 -0.546875q-0.6875 0 -1.171875 0.390625q-0.484375 0.375 -0.765625 1.375q-0.265625 1.0 -0.265625 4.171875l0 3.84375zm14.386719 0l0 -1.859375q-0.6875 0.984375 -1.796875 1.5625q-1.109375 0.578125 -2.328125 0.578125q-1.265625 0 -2.265625 -0.546875q-0.984375 -0.5625 -1.4375 -1.546875q-0.4375 -1.0 -0.4375 -2.765625l0 -7.875l3.296875 0l0 5.71875q0 2.625 0.171875 3.21875q0.1875 0.59375 0.65625 0.9375q0.484375 0.34375 1.234375 0.34375q0.84375 0 1.5 -0.453125q0.671875 -0.46875 0.921875 -1.15625q0.25 -0.6875 0.25 -3.359375l0 -5.25l3.28125 0l0 12.453125l-3.046875 0zm17.785156 0l-3.296875 0l0 -6.359375q0 -2.015625 -0.21875 -2.59375q-0.203125 -0.59375 -0.6875 -0.921875q-0.46875 -0.328125 -1.125 -0.328125q-0.859375 0 -1.546875 0.46875q-0.671875 0.46875 -0.921875 1.25q-0.25 0.765625 -0.25 2.84375l0 5.640625l-3.296875 0l0 -12.453125l3.0625 0l0 1.828125q1.625 -2.109375 4.09375 -2.109375q1.09375 0 1.984375 0.40625q0.90625 0.390625 1.375 1.0q0.46875 0.609375 0.640625 1.390625q0.1875 0.765625 0.1875 2.203125l0 7.734375zm14.660156 0l-3.296875 0l0 -6.359375q0 -2.015625 -0.21875 -2.59375q-0.203125 -0.59375 -0.6875 -0.921875q-0.46875 -0.328125 -1.125 -0.328125q-0.859375 0 -1.546875 0.46875q-0.671875 0.46875 -0.921875 1.25q-0.25 0.765625 -0.25 2.84375l0 5.640625l-3.296875 0l0 -12.453125l3.0625 0l0 1.828125q1.625 -2.109375 4.09375 -2.109375q1.09375 0 1.984375 0.40625q0.90625 0.390625 1.375 1.0q0.46875 0.609375 0.640625 1.390625q0.1875 0.765625 0.1875 2.203125l0 7.734375zm3.3320312 -14.140625l0 -3.046875l3.296875 0l0 3.046875l-3.296875 0zm0 14.140625l0 -12.453125l3.296875 0l0 12.453125l-3.296875 0zm17.996094 0l-3.296875 0l0 -6.359375q0 -2.015625 -0.21875 -2.59375q-0.203125 -0.59375 -0.6875 -0.921875q-0.46875 -0.328125 -1.125 -0.328125q-0.859375 0 -1.546875 0.46875q-0.671875 0.46875 -0.921875 1.25q-0.25 0.765625 -0.25 2.84375l0 5.640625l-3.296875 0l0 -12.453125l3.0625 0l0 1.828125q1.625 -2.109375 4.09375 -2.109375q1.09375 0 1.984375 0.40625q0.90625 0.390625 1.375 1.0q0.46875 0.609375 0.640625 1.390625q0.1875 0.765625 0.1875 2.203125l0 7.734375zm3.0351562 0.828125l3.765625 0.453125q0.09375 0.65625 0.421875 0.90625q0.46875 0.34375 1.484375 0.34375q1.28125 0 1.9375 -0.390625q0.421875 -0.25 0.65625 -0.828125q0.140625 -0.40625 0.140625 -1.515625l0 -1.8125q-1.46875 2.015625 -3.71875 2.015625q-2.515625 0 -3.96875 -2.125q-1.15625 -1.671875 -1.15625 -4.171875q0 -3.125 1.5 -4.78125q1.515625 -1.65625 3.75 -1.65625q2.3125 0 3.8125 2.03125l0 -1.75l3.078125 0l0 11.171875q0 2.203125 -0.359375 3.296875q-0.359375 1.09375 -1.015625 1.703125q-0.65625 0.625 -1.765625 0.96875q-1.09375 0.359375 -2.765625 0.359375q-3.15625 0 -4.484375 -1.078125q-1.328125 -1.078125 -1.328125 -2.75q0 -0.15625 0.015625 -0.390625zm2.9375 -7.3125q0 1.984375 0.765625 2.90625q0.765625 0.921875 1.890625 0.921875q1.21875 0 2.046875 -0.9375q0.828125 -0.953125 0.828125 -2.8125q0 -1.921875 -0.796875 -2.859375q-0.796875 -0.9375 -2.015625 -0.9375q-1.1875 0 -1.953125 0.921875q-0.765625 0.90625 -0.765625 2.796875zm18.6875 -7.65625l0 -3.046875l3.296875 0l0 3.046875l-3.296875 0zm0 14.140625l0 -12.453125l3.296875 0l0 12.453125l-3.296875 0zm17.996094 0l-3.296875 0l0 -6.359375q0 -2.015625 -0.21875 -2.59375q-0.203125 -0.59375 -0.6875 -0.921875q-0.46875 -0.328125 -1.125 -0.328125q-0.859375 0 -1.546875 0.46875q-0.671875 0.46875 -0.921875 1.25q-0.25 0.765625 -0.25 2.84375l0 5.640625l-3.296875 0l0 -12.453125l3.0625 0l0 1.828125q1.625 -2.109375 4.09375 -2.109375q1.09375 0 1.984375 0.40625q0.90625 0.390625 1.375 1.0q0.46875 0.609375 0.640625 1.390625q0.1875 0.765625 0.1875 2.203125l0 7.734375zm10.0 0l0 -17.1875l3.2968445 0l0 17.1875l-3.2968445 0zm5.917938 -6.40625q0 -1.640625 0.796875 -3.171875q0.8125 -1.53125 2.296875 -2.34375q1.484375 -0.8125 3.3125 -0.8125q2.828125 0 4.625 1.84375q1.8125 1.828125 1.8125 4.625q0 2.828125 -1.828125 4.6875q-1.828125 1.859375 -4.59375 1.859375q-1.703125 0 -3.265625 -0.765625q-1.546875 -0.78125 -2.359375 -2.265625q-0.796875 -1.5 -0.796875 -3.65625zm3.375 0.1875q0 1.84375 0.875 2.828125q0.875 0.984375 2.171875 0.984375q1.28125 0 2.15625 -0.984375q0.875 -0.984375 0.875 -2.859375q0 -1.828125 -0.875 -2.8125q-0.875 -0.984375 -2.15625 -0.984375q-1.296875 0 -2.171875 0.984375q-0.875 0.984375 -0.875 2.84375zm22.894531 -2.546875l-3.25 0.578125q-0.15625 -0.96875 -0.75 -1.453125q-0.578125 -0.5 -1.5 -0.5q-1.234375 0 -1.96875 0.859375q-0.71875 0.84375 -0.71875 2.828125q0 2.21875 0.734375 3.140625q0.75 0.90625 2.0 0.90625q0.9375 0 1.53125 -0.53125q0.609375 -0.53125 0.84375 -1.828125l3.234375 0.546875q-0.5 2.21875 -1.9375 3.359375q-1.421875 1.140625 -3.828125 1.140625q-2.71875 0 -4.34375 -1.71875q-1.625 -1.734375 -1.625 -4.78125q0 -3.078125 1.625 -4.796875q1.625 -1.71875 4.40625 -1.71875q2.28125 0 3.609375 0.984375q1.34375 0.984375 1.9375 2.984375zm4.9570312 0.109375l-2.984375 -0.53125q0.5 -1.8125 1.71875 -2.671875q1.234375 -0.875 3.671875 -0.875q2.203125 0 3.28125 0.53125q1.078125 0.515625 1.515625 1.328125q0.4375 0.796875 0.4375 2.9375l-0.03125 3.84375q0 1.640625 0.15625 2.421875q0.15625 0.78125 0.59375 1.671875l-3.265625 0q-0.125 -0.328125 -0.3125 -0.96875q-0.078125 -0.296875 -0.125 -0.390625q-0.84375 0.8125 -1.8125 1.234375q-0.953125 0.40625 -2.03125 0.40625q-1.921875 0 -3.03125 -1.046875q-1.109375 -1.046875 -1.109375 -2.640625q0 -1.046875 0.5 -1.875q0.5 -0.828125 1.40625 -1.265625q0.921875 -0.4375 2.625 -0.765625q2.3125 -0.4375 3.203125 -0.8125l0 -0.328125q0 -0.953125 -0.46875 -1.34375q-0.46875 -0.40625 -1.765625 -0.40625q-0.890625 0 -1.390625 0.34375q-0.484375 0.34375 -0.78125 1.203125zm4.40625 2.671875q-0.640625 0.21875 -2.015625 0.515625q-1.359375 0.28125 -1.78125 0.5625q-0.640625 0.46875 -0.640625 1.171875q0 0.6875 0.515625 1.1875q0.515625 0.5 1.3125 0.5q0.890625 0 1.6875 -0.578125q0.609375 -0.453125 0.796875 -1.09375q0.125 -0.421875 0.125 -1.609375l0 -0.65625zm6.4726562 5.984375l0 -17.1875l3.296875 0l0 17.1875l-3.296875 0z" fill-rule="nonzero"/><path fill="#000000" fill-opacity="0.0" d="m314.52304 163.7879l110.48819 0l0 41.92125l-110.48819 0z" fill-rule="evenodd"/><path fill="#000000" d="m339.64795 187.85542l0 -8.25l1.09375 0l0 3.390625l4.28125 0l0 -3.390625l1.09375 0l0 8.25l-1.09375 0l0 -3.890625l-4.28125 0l0 3.890625l-1.09375 0zm10.378723 0l0 -7.265625l-2.71875 0l0 -0.984375l6.53125 0l0 0.984375l-2.71875 0l0 7.265625l-1.09375 0zm7.03421 0l0 -7.265625l-2.71875 0l0 -0.984375l6.53125 0l0 0.984375l-2.71875 0l0 7.265625l-1.09375 0zm4.94046 0l0 -8.25l3.109375 0q0.8125 0 1.25 0.078125q0.609375 0.109375 1.015625 0.390625q0.421875 0.28125 0.671875 0.796875q0.25 0.515625 0.25 1.125q0 1.046875 -0.671875 1.78125q-0.671875 0.734375 -2.421875 0.734375l-2.109375 0l0 3.34375l-1.09375 0zm1.09375 -4.328125l2.125 0q1.0625 0 1.5 -0.390625q0.453125 -0.390625 0.453125 -1.109375q0 -0.515625 -0.265625 -0.875q-0.265625 -0.375 -0.6875 -0.5q-0.28125 -0.0625 -1.015625 -0.0625l-2.109375 0l0 2.9375zm6.7433167 -0.484375l0 -1.15625l1.140625 0l0 1.15625l-1.140625 0zm0 4.8125l0 -1.15625l1.140625 0l0 1.15625l-1.140625 0zm5.836334 -2.171875l1.015625 -0.140625q0.171875 0.859375 0.578125 1.25q0.421875 0.375 1.03125 0.375q0.71875 0 1.203125 -0.5q0.5 -0.5 0.5 -1.21875q0 -0.703125 -0.46875 -1.15625q-0.453125 -0.453125 -1.15625 -0.453125q-0.28125 0 -0.703125 0.109375l0.109375 -0.890625q0.09375 0.015625 0.15625 0.015625q0.65625 0 1.171875 -0.328125q0.515625 -0.34375 0.515625 -1.046875q0 -0.5625 -0.375 -0.921875q-0.375 -0.359375 -0.96875 -0.359375q-0.59375 0 -1.0 0.375q-0.390625 0.359375 -0.5 1.109375l-1.015625 -0.1875q0.1875 -1.015625 0.84375 -1.578125q0.671875 -0.5625 1.640625 -0.5625q0.671875 0 1.234375 0.296875q0.578125 0.28125 0.875 0.78125q0.3125 0.5 0.3125 1.0625q0 0.546875 -0.296875 0.984375q-0.28125 0.4375 -0.84375 0.6875q0.734375 0.171875 1.125 0.703125q0.40625 0.53125 0.40625 1.328125q0 1.078125 -0.78125 1.828125q-0.78125 0.75 -1.984375 0.75q-1.09375 0 -1.8125 -0.640625q-0.71875 -0.640625 -0.8125 -1.671875zm6.4044495 -1.890625q0 -1.46875 0.296875 -2.359375q0.296875 -0.890625 0.890625 -1.375q0.59375 -0.484375 1.5 -0.484375q0.65625 0 1.15625 0.265625q0.5 0.265625 0.828125 0.78125q0.328125 0.5 0.515625 1.21875q0.1875 0.71875 0.1875 1.953125q0 1.453125 -0.3125 2.34375q-0.296875 0.890625 -0.890625 1.375q-0.578125 0.484375 -1.484375 0.484375q-1.203125 0 -1.875 -0.859375q-0.8125 -1.03125 -0.8125 -3.34375zm1.03125 0q0 2.03125 0.46875 2.703125q0.484375 0.671875 1.1875 0.671875q0.6875 0 1.15625 -0.671875q0.484375 -0.6875 0.484375 -2.703125q0 -2.03125 -0.484375 -2.703125q-0.46875 -0.671875 -1.171875 -0.671875q-0.703125 0 -1.109375 0.59375q-0.53125 0.75 -0.53125 2.78125zm5.3731995 0q0 -1.46875 0.296875 -2.359375q0.296875 -0.890625 0.890625 -1.375q0.59375 -0.484375 1.5 -0.484375q0.65625 0 1.15625 0.265625q0.5 0.265625 0.828125 0.78125q0.328125 0.5 0.515625 1.21875q0.1875 0.71875 0.1875 1.953125q0 1.453125 -0.3125 2.34375q-0.296875 0.890625 -0.890625 1.375q-0.578125 0.484375 -1.484375 0.484375q-1.203125 0 -1.875 -0.859375q-0.8125 -1.03125 -0.8125 -3.34375zm1.03125 0q0 2.03125 0.46875 2.703125q0.484375 0.671875 1.1875 0.671875q0.6875 0 1.15625 -0.671875q0.484375 -0.6875 0.484375 -2.703125q0 -2.03125 -0.484375 -2.703125q-0.46875 -0.671875 -1.171875 -0.671875q-0.703125 0 -1.109375 0.59375q-0.53125 0.75 -0.53125 2.78125zm5.3731995 0q0 -1.46875 0.296875 -2.359375q0.296875 -0.890625 0.890625 -1.375q0.59375 -0.484375 1.5 -0.484375q0.65625 0 1.15625 0.265625q0.5 0.265625 0.828125 0.78125q0.328125 0.5 0.515625 1.21875q0.1875 0.71875 0.1875 1.953125q0 1.453125 -0.3125 2.34375q-0.296875 0.890625 -0.890625 1.375q-0.578125 0.484375 -1.484375 0.484375q-1.203125 0 -1.875 -0.859375q-0.8125 -1.03125 -0.8125 -3.34375zm1.03125 0q0 2.03125 0.46875 2.703125q0.484375 0.671875 1.1875 0.671875q0.6875 0 1.15625 -0.671875q0.484375 -0.6875 0.484375 -2.703125q0 -2.03125 -0.484375 -2.703125q-0.46875 -0.671875 -1.171875 -0.671875q-0.703125 0 -1.109375 0.59375q-0.53125 0.75 -0.53125 2.78125z" fill-rule="nonzero"/><path fill="#000000" fill-opacity="0.0" d="m516.88025 166.2133l110.48816 0l0 41.921265l-110.48816 0z" fill-rule="evenodd"/><path fill="#000000" d="m542.0052 190.28082l0 -8.25l1.09375 0l0 3.390625l4.28125 0l0 -3.390625l1.09375 0l0 8.25l-1.09375 0l0 -3.890625l-4.28125 0l0 3.890625l-1.09375 0zm10.378723 0l0 -7.265625l-2.71875 0l0 -0.984375l6.53125 0l0 0.984375l-2.71875 0l0 7.265625l-1.09375 0zm7.0341797 0l0 -7.265625l-2.71875 0l0 -0.984375l6.53125 0l0 0.984375l-2.71875 0l0 7.265625l-1.09375 0zm4.9404907 0l0 -8.25l3.109375 0q0.8125 0 1.25 0.078125q0.609375 0.109375 1.015625 0.390625q0.421875 0.28125 0.671875 0.796875q0.25 0.515625 0.25 1.125q0 1.046875 -0.671875 1.78125q-0.671875 0.734375 -2.421875 0.734375l-2.109375 0l0 3.34375l-1.09375 0zm1.09375 -4.328125l2.125 0q1.0625 0 1.5 -0.390625q0.453125 -0.390625 0.453125 -1.109375q0 -0.515625 -0.265625 -0.875q-0.265625 -0.375 -0.6875 -0.5q-0.28125 -0.0625 -1.015625 -0.0625l-2.109375 0l0 2.9375zm6.743286 -0.484375l0 -1.15625l1.140625 0l0 1.15625l-1.140625 0zm0 4.8125l0 -1.15625l1.140625 0l0 1.15625l-1.140625 0zm7.3832397 -4.46875q-0.625 -0.234375 -0.9375 -0.65625q-0.296875 -0.4375 -0.296875 -1.03125q0 -0.890625 0.640625 -1.5q0.65625 -0.625 1.734375 -0.625q1.078125 0 1.734375 0.640625q0.65625 0.625 0.65625 1.515625q0 0.578125 -0.3125 1.0q-0.296875 0.421875 -0.90625 0.65625q0.765625 0.25 1.15625 0.796875q0.390625 0.546875 0.390625 1.3125q0 1.0625 -0.75 1.78125q-0.734375 0.71875 -1.953125 0.71875q-1.21875 0 -1.96875 -0.71875q-0.75 -0.71875 -0.75 -1.8125q0 -0.796875 0.40625 -1.328125q0.40625 -0.546875 1.15625 -0.75zm-0.203125 -1.71875q0 0.59375 0.375 0.96875q0.390625 0.359375 0.984375 0.359375q0.578125 0 0.953125 -0.359375q0.375 -0.375 0.375 -0.90625q0 -0.5625 -0.390625 -0.9375q-0.375 -0.375 -0.953125 -0.375q-0.578125 0 -0.96875 0.375q-0.375 0.359375 -0.375 0.875zm-0.328125 3.8125q0 0.421875 0.203125 0.828125q0.21875 0.40625 0.625 0.640625q0.40625 0.21875 0.859375 0.21875q0.734375 0 1.203125 -0.46875q0.46875 -0.46875 0.46875 -1.1875q0 -0.734375 -0.484375 -1.203125q-0.484375 -0.484375 -1.21875 -0.484375q-0.703125 0 -1.1875 0.46875q-0.46875 0.46875 -0.46875 1.1875zm5.388794 -1.6875q0 -1.46875 0.296875 -2.359375q0.296875 -0.890625 0.890625 -1.375q0.59375 -0.484375 1.5 -0.484375q0.65625 0 1.15625 0.265625q0.5 0.265625 0.828125 0.78125q0.328125 0.5 0.515625 1.21875q0.1875 0.71875 0.1875 1.953125q0 1.453125 -0.3125 2.34375q-0.296875 0.890625 -0.890625 1.375q-0.578125 0.484375 -1.484375 0.484375q-1.203125 0 -1.875 -0.859375q-0.8125 -1.03125 -0.8125 -3.34375zm1.03125 0q0 2.03125 0.46875 2.703125q0.484375 0.671875 1.1875 0.671875q0.6875 0 1.15625 -0.671875q0.484375 -0.6875 0.484375 -2.703125q0 -2.03125 -0.484375 -2.703125q-0.46875 -0.671875 -1.171875 -0.671875q-0.703125 0 -1.109375 0.59375q-0.53125 0.75 -0.53125 2.78125zm5.37323 0q0 -1.46875 0.296875 -2.359375q0.296875 -0.890625 0.890625 -1.375q0.59375 -0.484375 1.5 -0.484375q0.65625 0 1.15625 0.265625q0.5 0.265625 0.828125 0.78125q0.328125 0.5 0.515625 1.21875q0.1875 0.71875 0.1875 1.953125q0 1.453125 -0.3125 2.34375q-0.296875 0.890625 -0.890625 1.375q-0.578125 0.484375 -1.484375 0.484375q-1.203125 0 -1.875 -0.859375q-0.8125 -1.03125 -0.8125 -3.34375zm1.03125 0q0 2.03125 0.46875 2.703125q0.484375 0.671875 1.1875 0.671875q0.6875 0 1.15625 -0.671875q0.484375 -0.6875 0.484375 -2.703125q0 -2.03125 -0.484375 -2.703125q-0.46875 -0.671875 -1.171875 -0.671875q-0.703125 0 -1.109375 0.59375q-0.53125 0.75 -0.53125 2.78125zm5.373169 0q0 -1.46875 0.296875 -2.359375q0.296875 -0.890625 0.890625 -1.375q0.59375 -0.484375 1.5 -0.484375q0.65625 0 1.15625 0.265625q0.5 0.265625 0.828125 0.78125q0.328125 0.5 0.515625 1.21875q0.1875 0.71875 0.1875 1.953125q0 1.453125 -0.3125 2.34375q-0.296875 0.890625 -0.890625 1.375q-0.578125 0.484375 -1.484375 0.484375q-1.203125 0 -1.875 -0.859375q-0.8125 -1.03125 -0.8125 -3.34375zm1.03125 0q0 2.03125 0.46875 2.703125q0.484375 0.671875 1.1875 0.671875q0.6875 0 1.15625 -0.671875q0.484375 -0.6875 0.484375 -2.703125q0 -2.03125 -0.484375 -2.703125q-0.46875 -0.671875 -1.171875 -0.671875q-0.703125 0 -1.109375 0.59375q-0.53125 0.75 -0.53125 2.78125z" fill-rule="nonzero"/><path fill="#000000" fill-opacity="0.0" d="m668.5352 360.45764l110.48816 0l0 41.921265l-110.48816 0z" fill-rule="evenodd"/><path fill="#000000" d="m693.0219 384.52515l0 -8.25l1.09375 0l0 3.390625l4.28125 0l0 -3.390625l1.09375 0l0 8.25l-1.09375 0l0 -3.890625l-4.28125 0l0 3.890625l-1.09375 0zm10.378723 0l0 -7.265625l-2.71875 0l0 -0.984375l6.53125 0l0 0.984375l-2.71875 0l0 7.265625l-1.09375 0zm7.0342407 0l0 -7.265625l-2.71875 0l0 -0.984375l6.53125 0l0 0.984375l-2.71875 0l0 7.265625l-1.09375 0zm4.9404297 0l0 -8.25l3.109375 0q0.8125 0 1.25 0.078125q0.609375 0.109375 1.015625 0.390625q0.421875 0.28125 0.671875 0.796875q0.25 0.515625 0.25 1.125q0 1.046875 -0.671875 1.78125q-0.671875 0.734375 -2.421875 0.734375l-2.109375 0l0 3.34375l-1.09375 0zm1.09375 -4.328125l2.125 0q1.0625 0 1.5 -0.390625q0.453125 -0.390625 0.453125 -1.109375q0 -0.515625 -0.265625 -0.875q-0.265625 -0.375 -0.6875 -0.5q-0.28125 -0.0625 -1.015625 -0.0625l-2.109375 0l0 2.9375zm6.212097 1.6875l1.03125 -0.09375q0.078125 0.609375 0.34375 1.015625q0.265625 0.390625 0.828125 0.640625q0.5625 0.234375 1.265625 0.234375q0.625 0 1.09375 -0.171875q0.484375 -0.1875 0.71875 -0.515625q0.234375 -0.328125 0.234375 -0.703125q0 -0.390625 -0.234375 -0.671875q-0.21875 -0.296875 -0.734375 -0.5q-0.328125 -0.125 -1.46875 -0.390625q-1.140625 -0.28125 -1.59375 -0.515625q-0.59375 -0.3125 -0.890625 -0.765625q-0.28125 -0.46875 -0.28125 -1.03125q0 -0.625 0.359375 -1.171875q0.359375 -0.546875 1.03125 -0.828125q0.6875 -0.28125 1.515625 -0.28125q0.921875 0 1.609375 0.296875q0.703125 0.296875 1.078125 0.875q0.375 0.578125 0.40625 1.296875l-1.046875 0.078125q-0.078125 -0.78125 -0.5625 -1.171875q-0.484375 -0.40625 -1.4375 -0.40625q-1.0 0 -1.453125 0.359375q-0.4375 0.359375 -0.4375 0.875q0 0.453125 0.3125 0.734375q0.3125 0.28125 1.640625 0.59375q1.328125 0.296875 1.828125 0.515625q0.71875 0.328125 1.0625 0.84375q0.34375 0.515625 0.34375 1.171875q0 0.65625 -0.375 1.25q-0.375 0.578125 -1.078125 0.90625q-0.703125 0.3125 -1.59375 0.3125q-1.125 0 -1.875 -0.328125q-0.75 -0.328125 -1.1875 -0.984375q-0.421875 -0.65625 -0.453125 -1.46875zm8.212097 -2.171875l0 -1.15625l1.140625 0l0 1.15625l-1.140625 0zm0 4.8125l0 -1.15625l1.140625 0l0 1.15625l-1.140625 0zm9.070679 0l0 -1.96875l-3.578125 0l0 -0.9375l3.765625 -5.34375l0.828125 0l0 5.34375l1.109375 0l0 0.9375l-1.109375 0l0 1.96875l-1.015625 0zm0 -2.90625l0 -3.71875l-2.578125 3.71875l2.578125 0zm6.40448 2.90625l0 -1.96875l-3.578125 0l0 -0.9375l3.765625 -5.34375l0.828125 0l0 5.34375l1.109375 0l0 0.9375l-1.109375 0l0 1.96875l-1.015625 0zm0 -2.90625l0 -3.71875l-2.578125 3.71875l2.578125 0zm3.170044 0.734375l1.015625 -0.140625q0.171875 0.859375 0.578125 1.25q0.421875 0.375 1.03125 0.375q0.71875 0 1.203125 -0.5q0.5 -0.5 0.5 -1.21875q0 -0.703125 -0.46875 -1.15625q-0.453125 -0.453125 -1.15625 -0.453125q-0.28125 0 -0.703125 0.109375l0.109375 -0.890625q0.09375 0.015625 0.15625 0.015625q0.65625 0 1.171875 -0.328125q0.515625 -0.34375 0.515625 -1.046875q0 -0.5625 -0.375 -0.921875q-0.375 -0.359375 -0.96875 -0.359375q-0.59375 0 -1.0 0.375q-0.390625 0.359375 -0.5 1.109375l-1.015625 -0.1875q0.1875 -1.015625 0.84375 -1.578125q0.671875 -0.5625 1.640625 -0.5625q0.671875 0 1.234375 0.296875q0.578125 0.28125 0.875 0.78125q0.3125 0.5 0.3125 1.0625q0 0.546875 -0.296875 0.984375q-0.28125 0.4375 -0.84375 0.6875q0.734375 0.171875 1.125 0.703125q0.40625 0.53125 0.40625 1.328125q0 1.078125 -0.78125 1.828125q-0.78125 0.75 -1.984375 0.75q-1.09375 0 -1.8125 -0.640625q-0.71875 -0.640625 -0.8125 -1.671875z" fill-rule="nonzero"/><path fill="#000000" fill-opacity="0.0" d="m618.4252 129.33333l160.59845 0l0 43.622055l-160.59845 0z" fill-rule="evenodd"/><path fill="#595959" d="m677.41583 143.22083l1.890625 0l0 8.265625q0 2.15625 -0.484375 3.4375q-0.484375 1.265625 -1.765625 2.0625q-1.265625 0.796875 -3.34375 0.796875q-2.015625 0 -3.296875 -0.6875q-1.265625 -0.703125 -1.8125 -2.015625q-0.546875 -1.3125 -0.546875 -3.59375l0 -8.265625l1.890625 0l0 8.25q0 1.875 0.34375 2.765625q0.34375 0.875 1.1875 1.359375q0.84375 0.46875 2.078125 0.46875q2.078125 0 2.96875 -0.9375q0.890625 -0.953125 0.890625 -3.65625l0 -8.25zm6.4433594 14.3125l-1.625 0l0 -14.3125l1.75 0l0 5.109375q1.125 -1.40625 2.84375 -1.40625q0.953125 0 1.8125 0.390625q0.859375 0.390625 1.40625 1.09375q0.546875 0.6875 0.859375 1.671875q0.3125 0.984375 0.3125 2.109375q0 2.671875 -1.3125 4.125q-1.3125 1.453125 -3.15625 1.453125q-1.84375 0 -2.890625 -1.53125l0 1.296875zm-0.015625 -5.265625q0 1.859375 0.5 2.703125q0.84375 1.34375 2.25 1.34375q1.15625 0 1.984375 -1.0q0.84375 -1.0 0.84375 -2.984375q0 -2.03125 -0.8125 -2.984375q-0.796875 -0.96875 -1.9375 -0.96875q-1.15625 0 -2.0 1.0q-0.828125 1.0 -0.828125 2.890625zm16.310547 5.265625l0 -1.53125q-1.203125 1.765625 -3.28125 1.765625q-0.921875 0 -1.71875 -0.34375q-0.796875 -0.359375 -1.1875 -0.890625q-0.375 -0.53125 -0.53125 -1.3125q-0.109375 -0.515625 -0.109375 -1.640625l0 -6.421875l1.75 0l0 5.75q0 1.375 0.109375 1.859375q0.171875 0.6875 0.703125 1.09375q0.546875 0.390625 1.328125 0.390625q0.796875 0 1.484375 -0.40625q0.703125 -0.40625 0.984375 -1.09375q0.296875 -0.703125 0.296875 -2.03125l0 -5.5625l1.75 0l0 10.375l-1.578125 0zm4.326172 0l0 -10.375l1.59375 0l0 1.484375q1.140625 -1.71875 3.296875 -1.71875q0.9375 0 1.71875 0.34375q0.796875 0.328125 1.1875 0.875q0.390625 0.546875 0.546875 1.296875q0.09375 0.5 0.09375 1.71875l0 6.375l-1.765625 0l0 -6.3125q0 -1.078125 -0.203125 -1.609375q-0.203125 -0.53125 -0.734375 -0.84375q-0.515625 -0.3125 -1.21875 -0.3125q-1.125 0 -1.9375 0.71875q-0.8125 0.703125 -0.8125 2.6875l0 5.671875l-1.765625 0zm14.966797 -1.578125l0.25 1.5625q-0.734375 0.15625 -1.328125 0.15625q-0.953125 0 -1.484375 -0.296875q-0.515625 -0.3125 -0.734375 -0.796875q-0.21875 -0.5 -0.21875 -2.078125l0 -5.96875l-1.28125 0l0 -1.375l1.28125 0l0 -2.5625l1.75 -1.0625l0 3.625l1.765625 0l0 1.375l-1.765625 0l0 6.0625q0 0.75 0.09375 0.96875q0.09375 0.203125 0.296875 0.34375q0.21875 0.125 0.609375 0.125q0.28125 0 0.765625 -0.078125zm8.509766 1.578125l0 -1.53125q-1.203125 1.765625 -3.28125 1.765625q-0.921875 0 -1.71875 -0.34375q-0.796875 -0.359375 -1.1875 -0.890625q-0.375 -0.53125 -0.53125 -1.3125q-0.109375 -0.515625 -0.109375 -1.640625l0 -6.421875l1.75 0l0 5.75q0 1.375 0.109375 1.859375q0.171875 0.6875 0.703125 1.09375q0.546875 0.390625 1.328125 0.390625q0.796875 0 1.484375 -0.40625q0.703125 -0.40625 0.984375 -1.09375q0.296875 -0.703125 0.296875 -2.03125l0 -5.5625l1.75 0l0 10.375l-1.578125 0z" fill-rule="nonzero"/><path fill="#000000" fill-opacity="0.0" d="m574.08923 249.19685l-78.834625 0.28346252" fill-rule="evenodd"/><path stroke="#595959" stroke-width="0.84251968503937" stroke-linejoin="round" stroke-linecap="butt" d="m574.08923 249.19685l-73.77957 0.2652893" fill-rule="evenodd"/><path fill="#595959" stroke="#595959" stroke-width="0.84251968503937" stroke-linecap="butt" d="m500.3047 248.07053l-3.8184204 1.405365l3.8284302 1.3778534z" fill-rule="evenodd"/><path fill="#eeeeee" d="m232.63257 206.6774l0 0c0 -6.6333466 5.3773956 -12.010727 12.010742 -12.010727l57.868286 0c3.1854553 0 6.2404175 1.2654114 8.492859 3.5178528c2.252472 2.2524567 3.5178833 5.307434 3.5178833 8.492874l0 48.04152c0 6.6333466 -5.377411 12.010727 -12.010742 12.010727l-57.868286 0c-6.6333466 0 -12.010742 -5.3773804 -12.010742 -12.010727z" fill-rule="evenodd"/><path stroke="#595959" stroke-width="0.84251968503937" stroke-linejoin="round" stroke-linecap="butt" d="m232.63257 206.6774l0 0c0 -6.6333466 5.3773956 -12.010727 12.010742 -12.010727l57.868286 0c3.1854553 0 6.2404175 1.2654114 8.492859 3.5178528c2.252472 2.2524567 3.5178833 5.307434 3.5178833 8.492874l0 48.04152c0 6.6333466 -5.377411 12.010727 -12.010742 12.010727l-57.868286 0c-6.6333466 0 -12.010742 -5.3773804 -12.010742 -12.010727z" fill-rule="evenodd"/><path fill="#000000" d="m259.71637 215.55534l1.484375 0l0 6.515625q0 1.703125 -0.390625 2.703125q-0.375 1.0 -1.375 1.625q-1.0 0.625 -2.640625 0.625q-1.578125 0 -2.59375 -0.546875q-1.0 -0.546875 -1.4375 -1.578125q-0.4375 -1.03125 -0.4375 -2.828125l0 -6.515625l1.5 0l0 6.515625q0 1.46875 0.265625 2.171875q0.28125 0.6875 0.9375 1.0625q0.671875 0.375 1.640625 0.375q1.640625 0 2.34375 -0.734375q0.703125 -0.75 0.703125 -2.875l0 -6.515625zm3.244812 8.84375l1.375 -0.21875q0.109375 0.828125 0.640625 1.265625q0.53125 0.4375 1.46875 0.4375q0.953125 0 1.40625 -0.390625q0.46875 -0.390625 0.46875 -0.90625q0 -0.46875 -0.40625 -0.75q-0.28125 -0.171875 -1.40625 -0.46875q-1.53125 -0.375 -2.125 -0.65625q-0.578125 -0.28125 -0.890625 -0.78125q-0.296875 -0.5 -0.296875 -1.09375q0 -0.546875 0.25 -1.015625q0.25 -0.46875 0.671875 -0.78125q0.328125 -0.234375 0.890625 -0.390625q0.5625 -0.171875 1.1875 -0.171875q0.96875 0 1.6875 0.28125q0.734375 0.265625 1.078125 0.75q0.34375 0.46875 0.484375 1.265625l-1.359375 0.1875q-0.09375 -0.640625 -0.53125 -0.984375q-0.4375 -0.359375 -1.25 -0.359375q-0.953125 0 -1.359375 0.3125q-0.40625 0.3125 -0.40625 0.734375q0 0.28125 0.15625 0.484375q0.171875 0.234375 0.53125 0.375q0.21875 0.078125 1.234375 0.359375q1.46875 0.390625 2.046875 0.640625q0.578125 0.25 0.90625 0.734375q0.34375 0.46875 0.34375 1.171875q0 0.703125 -0.40625 1.3125q-0.40625 0.609375 -1.171875 0.953125q-0.765625 0.328125 -1.71875 0.328125q-1.59375 0 -2.4375 -0.65625q-0.828125 -0.671875 -1.0625 -1.96875zm14.0390625 -0.1875l1.421875 0.171875q-0.328125 1.25 -1.25 1.953125q-0.921875 0.6875 -2.34375 0.6875q-1.796875 0 -2.84375 -1.109375q-1.046875 -1.109375 -1.046875 -3.09375q0 -2.0625 1.0625 -3.203125q1.0625 -1.140625 2.75 -1.140625q1.640625 0 2.671875 1.125q1.046875 1.109375 1.046875 3.125q0 0.125 0 0.375l-6.09375 0q0.078125 1.34375 0.75 2.0625q0.6875 0.71875 1.71875 0.71875q0.765625 0 1.296875 -0.390625q0.53125 -0.40625 0.859375 -1.28125zm-4.546875 -2.25l4.5625 0q-0.09375 -1.03125 -0.53125 -1.546875q-0.65625 -0.796875 -1.71875 -0.796875q-0.953125 0 -1.609375 0.640625q-0.640625 0.640625 -0.703125 1.703125zm7.705597 4.875l0 -8.171875l1.234375 0l0 1.234375q0.484375 -0.875 0.890625 -1.140625q0.40625 -0.28125 0.890625 -0.28125q0.6875 0 1.421875 0.453125l-0.484375 1.28125q-0.5 -0.296875 -1.015625 -0.296875q-0.453125 0 -0.8125 0.28125q-0.359375 0.265625 -0.515625 0.75q-0.234375 0.734375 -0.234375 1.609375l0 4.28125l-1.375 0zm5.757141 -9.796875l0 -1.609375l1.484375 0l0 1.28125q0 1.03125 -0.234375 1.484375q-0.328125 0.625 -1.03125 0.9375l-0.34375 -0.546875q0.421875 -0.171875 0.625 -0.53125q0.203125 -0.375 0.21875 -1.015625l-0.71875 0zm2.748993 7.359375l1.375 -0.21875q0.109375 0.828125 0.640625 1.265625q0.53125 0.4375 1.46875 0.4375q0.953125 0 1.40625 -0.390625q0.46875 -0.390625 0.46875 -0.90625q0 -0.46875 -0.40625 -0.75q-0.28125 -0.171875 -1.40625 -0.46875q-1.53125 -0.375 -2.125 -0.65625q-0.578125 -0.28125 -0.890625 -0.78125q-0.296875 -0.5 -0.296875 -1.09375q0 -0.546875 0.25 -1.015625q0.25 -0.46875 0.671875 -0.78125q0.328125 -0.234375 0.890625 -0.390625q0.5625 -0.171875 1.1875 -0.171875q0.96875 0 1.6875 0.28125q0.734375 0.265625 1.078125 0.75q0.34375 0.46875 0.484375 1.265625l-1.359375 0.1875q-0.09375 -0.640625 -0.53125 -0.984375q-0.4375 -0.359375 -1.25 -0.359375q-0.953125 0 -1.359375 0.3125q-0.40625 0.3125 -0.40625 0.734375q0 0.28125 0.15625 0.484375q0.171875 0.234375 0.53125 0.375q0.21875 0.078125 1.234375 0.359375q1.46875 0.390625 2.046875 0.640625q0.578125 0.25 0.90625 0.734375q0.34375 0.46875 0.34375 1.171875q0 0.703125 -0.40625 1.3125q-0.40625 0.609375 -1.171875 0.953125q-0.765625 0.328125 -1.71875 0.328125q-1.59375 0 -2.4375 -0.65625q-0.828125 -0.671875 -1.0625 -1.96875z" fill-rule="nonzero"/><path fill="#000000" d="m247.8536 245.8366l-1.28125 0l0 -11.28125l1.390625 0l0 4.015625q0.875 -1.09375 2.234375 -1.09375q0.75 0 1.421875 0.3125q0.6875 0.296875 1.109375 0.84375q0.4375 0.546875 0.6875 1.328125q0.25 0.78125 0.25 1.671875q0 2.09375 -1.046875 3.25q-1.03125 1.140625 -2.484375 1.140625q-1.453125 0 -2.28125 -1.21875l0 1.03125zm-0.015625 -4.15625q0 1.484375 0.40625 2.125q0.65625 1.078125 1.765625 1.078125q0.90625 0 1.5625 -0.78125q0.671875 -0.796875 0.671875 -2.359375q0 -1.609375 -0.640625 -2.359375q-0.625 -0.765625 -1.53125 -0.765625q-0.90625 0 -1.578125 0.796875q-0.65625 0.78125 -0.65625 2.265625zm7.502472 4.15625l0 -8.171875l1.234375 0l0 1.234375q0.484375 -0.875 0.890625 -1.140625q0.40625 -0.28125 0.890625 -0.28125q0.6875 0 1.421875 0.453125l-0.484375 1.28125q-0.5 -0.296875 -1.015625 -0.296875q-0.453125 0 -0.8125 0.28125q-0.359375 0.265625 -0.515625 0.75q-0.234375 0.734375 -0.234375 1.609375l0 4.28125l-1.375 0zm4.750061 -4.09375q0 -2.265625 1.25 -3.359375q1.0625 -0.90625 2.578125 -0.90625q1.6875 0 2.75 1.109375q1.078125 1.09375 1.078125 3.046875q0 1.578125 -0.484375 2.484375q-0.46875 0.90625 -1.375 1.40625q-0.90625 0.5 -1.96875 0.5q-1.71875 0 -2.78125 -1.09375q-1.046875 -1.109375 -1.046875 -3.1875zm1.421875 0q0 1.578125 0.671875 2.359375q0.6875 0.78125 1.734375 0.78125q1.03125 0 1.71875 -0.78125q0.6875 -0.796875 0.6875 -2.40625q0 -1.515625 -0.703125 -2.296875q-0.6875 -0.78125 -1.703125 -0.78125q-1.046875 0 -1.734375 0.78125q-0.671875 0.78125 -0.671875 2.34375zm9.361847 4.09375l-2.5 -8.171875l1.4375 0l1.296875 4.71875l0.484375 1.75q0.03125 -0.125 0.421875 -1.6875l1.296875 -4.78125l1.421875 0l1.234375 4.734375l0.40625 1.5625l0.46875 -1.578125l1.40625 -4.71875l1.34375 0l-2.5625 8.171875l-1.4375 0l-1.296875 -4.890625l-0.3125 -1.40625l-1.65625 6.296875l-1.453125 0zm9.322937 -2.4375l1.375 -0.21875q0.109375 0.828125 0.640625 1.265625q0.53125 0.4375 1.46875 0.4375q0.953125 0 1.40625 -0.390625q0.46875 -0.390625 0.46875 -0.90625q0 -0.46875 -0.40625 -0.75q-0.28125 -0.171875 -1.40625 -0.46875q-1.53125 -0.375 -2.125 -0.65625q-0.578125 -0.28125 -0.890625 -0.78125q-0.296875 -0.5 -0.296875 -1.09375q0 -0.546875 0.25 -1.015625q0.25 -0.46875 0.671875 -0.78125q0.328125 -0.234375 0.890625 -0.390625q0.5625 -0.171875 1.1875 -0.171875q0.96875 0 1.6875 0.28125q0.734375 0.265625 1.078125 0.75q0.34375 0.46875 0.484375 1.265625l-1.359375 0.1875q-0.09375 -0.640625 -0.53125 -0.984375q-0.4375 -0.359375 -1.25 -0.359375q-0.953125 0 -1.359375 0.3125q-0.40625 0.3125 -0.40625 0.734375q0 0.28125 0.15625 0.484375q0.171875 0.234375 0.53125 0.375q0.21875 0.078125 1.234375 0.359375q1.46875 0.390625 2.046875 0.640625q0.578125 0.25 0.90625 0.734375q0.34375 0.46875 0.34375 1.171875q0 0.703125 -0.40625 1.3125q-0.40625 0.609375 -1.171875 0.953125q-0.765625 0.328125 -1.71875 0.328125q-1.59375 0 -2.4375 -0.65625q-0.828125 -0.671875 -1.0625 -1.96875zm14.0390625 -0.1875l1.421875 0.171875q-0.328125 1.25 -1.25 1.953125q-0.921875 0.6875 -2.34375 0.6875q-1.796875 0 -2.84375 -1.109375q-1.046875 -1.109375 -1.046875 -3.09375q0 -2.0625 1.0625 -3.203125q1.0625 -1.140625 2.75 -1.140625q1.640625 0 2.671875 1.125q1.046875 1.109375 1.046875 3.125q0 0.125 0 0.375l-6.09375 0q0.078125 1.34375 0.75 2.0625q0.6875 0.71875 1.71875 0.71875q0.765625 0 1.296875 -0.390625q0.53125 -0.40625 0.859375 -1.28125zm-4.546875 -2.25l4.5625 0q-0.09375 -1.03125 -0.53125 -1.546875q-0.65625 -0.796875 -1.71875 -0.796875q-0.953125 0 -1.609375 0.640625q-0.640625 0.640625 -0.703125 1.703125zm7.705597 4.875l0 -8.171875l1.234375 0l0 1.234375q0.484375 -0.875 0.890625 -1.140625q0.40625 -0.28125 0.890625 -0.28125q0.6875 0 1.421875 0.453125l-0.484375 1.28125q-0.5 -0.296875 -1.015625 -0.296875q-0.453125 0 -0.8125 0.28125q-0.359375 0.265625 -0.515625 0.75q-0.234375 0.734375 -0.234375 1.609375l0 4.28125l-1.375 0z" fill-rule="nonzero"/><path fill="#000000" fill-opacity="0.0" d="m367.5853 251.61679l-53.480316 0.53544617" fill-rule="evenodd"/><path stroke="#595959" stroke-width="0.84251968503937" stroke-linejoin="round" stroke-linecap="butt" d="m367.5853 251.61679l-48.425446 0.48483276" fill-rule="evenodd"/><path fill="#595959" stroke="#595959" stroke-width="0.84251968503937" stroke-linecap="butt" d="m319.1459 250.71008l-3.8092957 1.4298248l3.8371887 1.3532562z" fill-rule="evenodd"/></g></svg>